<?xml version="1.0" encoding="UTF-8" standalone="no"?>
<svg
   width="20px"
   height="20px"
   fill="#d1d3d5"
   viewBox="0 0 20 20"
   version="1.1"
   id="svg20"
   sodipodi:docname="cloud-upload-svgrepo-com-gray.svg"
   inkscape:version="1.2.1 (ef4d3fba62, 2022-07-19, custom)"
   xmlns:inkscape="http://www.inkscape.org/namespaces/inkscape"
   xmlns:sodipodi="http://sodipodi.sourceforge.net/DTD/sodipodi-0.dtd"
   xmlns="http://www.w3.org/2000/svg"
   xmlns:svg="http://www.w3.org/2000/svg">
  <defs
     id="defs24" />
  <sodipodi:namedview
     id="namedview22"
     pagecolor="#505050"
     bordercolor="#eeeeee"
     borderopacity="1"
     inkscape:showpageshadow="0"
     inkscape:pageopacity="0"
     inkscape:pagecheckerboard="0"
     inkscape:deskcolor="#505050"
     showgrid="false"
     inkscape:zoom="40.35"
     inkscape:cx="9.9876084"
     inkscape:cy="9.9504337"
     inkscape:window-width="1920"
     inkscape:window-height="1000"
     inkscape:window-x="0"
     inkscape:window-y="0"
     inkscape:window-maximized="1"
     inkscape:current-layer="svg20" />
  <path
     d="M16.88 9.1A4 4 0 0 1 16 17H5a5 5 0 0 1-1-9.9V7a3 3 0 0 1 4.52-2.59A4.98 4.98 0 0 1 17 8c0 .38-.04.74-.12 1.1zM11 11h3l-4-4-4 4h3v3h2v-3z"
     id="path18" />
  <path
     style="fill:#999999;stroke-width:0.0247831"
     d="M 4.2874845,16.937114 C 1.5560941,16.537914 -0.33521071,13.997916 0.06451136,11.265716 0.35581544,9.2745799 1.8632377,7.6283703 3.8315732,7.1518228 L 4.0076325,7.1091978 4.0221257,6.8445616 C 4.0636763,6.0858793 4.3566441,5.4293673 4.8930057,4.8930057 5.4606664,4.325345 6.2011876,4.0146724 6.9858981,4.0149695 7.4573653,4.015148 7.849941,4.1030851 8.2828924,4.3054963 L 8.5236535,4.4180557 8.6918144,4.2697919 C 9.9032872,3.2016627 11.461221,2.7742257 13.005104,3.0863912 c 2.054287,0.4153666 3.628102,2.0873428 3.932949,4.1782517 0.05126,0.3515526 0.0509,1.0922932 -6.77e-4,1.4218503 -0.02133,0.1363073 -0.04484,0.2881415 -0.05223,0.3374094 l -0.01344,0.089578 0.174153,0.042678 c 0.09578,0.023473 0.294524,0.091735 0.441646,0.1516929 1.248993,0.5090149 2.147557,1.6018325 2.418858,2.9417705 0.07995,0.394882 0.08018,1.095376 4.88e-4,1.4927 -0.254023,1.266464 -1.046815,2.29391 -2.199284,2.850235 -0.287227,0.138652 -0.548034,0.228787 -0.916976,0.31691 l -0.223048,0.05328 -6.022305,0.0044 c -5.0256523,0.0037 -6.0612689,-0.0013 -6.257745,-0.03002 z M 11.003717,12.50329 v -1.499189 l 1.499443,-0.0064 1.499442,-0.0064 L 12.001244,8.9900865 9.9998855,6.9888473 7.9925653,8.9962823 5.9852449,11.003717 h 1.5055187 1.5055189 v 1.499381 1.49938 H 10 11.003717 Z"
     id="path947" />
  <path
     style="fill:#999999;stroke-width:0.0247831"
     d="M 4.361834,16.926607 C 3.5442979,16.846851 2.5634592,16.427244 1.8711276,15.861073 0.57036934,14.797345 -0.11659201,13.150017 0.05074594,11.49581 0.1988311,10.031926 1.0054231,8.6966235 2.2403345,7.8709742 2.6936912,7.5678647 3.2617745,7.3109549 3.7546468,7.1861425 3.8773234,7.1550766 3.9858369,7.1227343 3.9957879,7.1142709 4.0057388,7.1058074 4.0257641,6.9620268 4.040288,6.7947584 4.1005856,6.1003321 4.3221301,5.5641373 4.7552989,5.0642466 5.2685512,4.471937 5.993342,4.0997037 6.7413628,4.0442569 7.2872617,4.0037924 7.7509038,4.0850586 8.2534052,4.3092847 L 8.5276763,4.4316699 8.6690426,4.3071425 C 9.4021143,3.6613913 10.266917,3.2339185 11.152416,3.079608 c 0.129492,-0.022566 0.241016,-0.047813 0.247832,-0.056106 0.0068,-0.00829 0.268897,-0.013451 0.582404,-0.011464 0.619658,0.00393 0.818519,0.028247 1.32072,0.1615077 1.904167,0.505279 3.343639,2.1405975 3.624185,4.1172696 0.05769,0.4064892 0.02233,1.4050817 -0.06277,1.7726064 -0.01094,0.047233 0.0018,0.058396 0.09287,0.081317 0.215206,0.054174 0.558531,0.1843765 0.788128,0.2988897 1.111943,0.5545894 1.878703,1.5544986 2.146999,2.7998386 0.06508,0.302056 0.06508,1.20853 0,1.510586 -0.07603,0.352893 -0.186328,0.666854 -0.352835,1.00431 -0.200282,0.405909 -0.425521,0.721182 -0.742548,1.039364 -0.524939,0.526852 -1.150609,0.87555 -1.937683,1.07991 l -0.285138,0.07403 -6.013433,-0.0035 C 7.2537527,16.9463 4.4640644,16.93658 4.361834,16.926607 Z m 6.641883,-4.423509 v -1.499381 h 1.482859 c 0.815572,0 1.490745,-0.0079 1.500384,-0.01752 C 14.006568,10.966583 10.039166,6.9888476 10,6.9888476 c -0.013694,0 -0.9281921,0.9033457 -2.0322181,2.0074349 L 5.9604617,11.003717 H 7.478372 8.9962825 v 1.499381 1.49938 H 10 11.003717 Z"
     id="path949" />
  <path
     style="fill:#b3b3b3;stroke-width:0.0247831"
     d="M 4.3494424,16.926044 C 3.7202994,16.86732 2.9035157,16.565661 2.2960488,16.167674 1.521681,15.660341 0.94325561,15.003749 0.53052865,14.163569 -0.47633081,12.113923 0.05311504,9.6611326 1.8215613,8.1825358 2.3682506,7.7254493 3.0860914,7.3554441 3.7546468,7.1861425 3.8773234,7.1550766 3.985284,7.1230694 3.9945594,7.1150154 4.0038347,7.1069613 4.0236838,6.9665428 4.0386682,6.802974 4.0863797,6.2821584 4.2094654,5.8790825 4.4357784,5.5025323 4.9386686,4.6658013 5.8100699,4.1132887 6.7349656,4.0447311 7.2863812,4.0038576 7.7490007,4.0842094 8.2504042,4.3079456 L 8.5216743,4.4289916 8.7794084,4.2137788 C 9.4843053,3.6251772 10.273865,3.2439697 11.116324,3.0854924 c 0.122081,-0.022965 0.238695,-0.048438 0.259141,-0.056607 0.06176,-0.024676 1.26394,-0.022566 1.26394,0.00222 0,0.012455 0.03886,0.018109 0.08635,0.012564 0.04749,-0.00554 0.08931,-0.00379 0.09294,0.00391 0.0036,0.00769 0.123687,0.039686 0.26681,0.071098 0.377019,0.082746 0.735806,0.2090349 1.10285,0.3881922 1.48406,0.7243827 2.505343,2.1375243 2.740329,3.7917726 0.04175,0.2939108 0.0286,1.1731505 -0.0227,1.5181254 l -0.04517,0.3037512 0.101195,0.025398 c 0.322607,0.080966 0.868408,0.3155909 1.139504,0.4898399 0.927036,0.5958613 1.554695,1.5096013 1.791273,2.6077173 0.06508,0.302056 0.06508,1.20853 0,1.510586 -0.07603,0.352893 -0.186328,0.666854 -0.352835,1.00431 -0.376189,0.762417 -0.964946,1.363443 -1.72086,1.756722 -0.317861,0.165374 -0.514373,0.240703 -0.916734,0.351414 l -0.309547,0.08517 -6.022547,-0.0036 c -3.3124012,-0.002 -6.1117668,-0.01189 -6.2208126,-0.02207 z m 6.6542746,-4.422946 v -1.499381 h 1.486989 c 1.115477,0 1.486989,-0.0072 1.486989,-0.02888 0,-0.01588 -0.890914,-0.921181 -1.979808,-2.0117696 l -1.979808,-1.982888 -0.095781,0.0771 c -0.052679,0.042404 -0.9656417,0.9477 -2.0288061,2.0117684 L 5.9604662,11.003717 h 1.517908 1.5179083 v 1.499381 1.49938 H 10 11.003717 Z"
     id="path951" />
  <path
     style="fill:#b3b3b3;stroke-width:0.0247831"
     d="m 9.7026022,16.925994 c -5.0322324,-0.0126 -5.517481,-0.01732 -5.684879,-0.0554 -0.1006612,-0.0229 -0.191716,-0.03626 -0.2023443,-0.02969 -0.010628,0.0066 -0.023064,0.0027 -0.027636,-0.0086 -0.00457,-0.01131 -0.1086843,-0.05162 -0.2313608,-0.08959 C 3.0197717,16.576645 2.4699903,16.293412 2.0011703,15.941493 0.99279195,15.184556 0.26204838,13.949355 0.09440478,12.718422 0.07734754,12.593178 0.05749282,12.490733 0.05028317,12.490765 c -0.0072097,2.4e-5 -0.0094523,-0.08979 -0.0049837,-0.199598 0.0046931,-0.115327 -0.0028444,-0.212872 -0.01784592,-0.230948 -0.01668408,-0.0201 -0.01823501,-0.06172 -0.0043373,-0.116388 0.02000646,-0.07869 0.05638929,-0.506914 0.06145055,-0.723261 0.0011958,-0.05112 0.0084925,-0.09294 0.01621486,-0.09294 0.007722,0 0.0286038,-0.07528 0.0464031,-0.167286 C 0.22970791,10.533773 0.48526347,9.8854954 0.73092414,9.4795539 1.4001681,8.3736629 2.4188554,7.5912919 3.6679058,7.2238969 3.83829,7.1737802 3.9863641,7.1246226 3.9969596,7.1146575 4.0075551,7.1046924 4.03306,6.9526649 4.0536372,6.7768188 4.1139053,6.2617827 4.2262035,5.8866741 4.4167792,5.5638166 4.7399599,5.0163108 5.1611281,4.6212553 5.7125155,4.3484173 6.0485601,4.1821354 6.3356035,4.0989227 6.6982426,4.0626591 7.2495063,4.0075331 7.7169879,4.0889744 8.2940714,4.3406733 L 8.5212285,4.4397493 8.8004862,4.2144196 C 9.1956714,3.8955496 9.4770999,3.7134695 9.8760843,3.5185239 10.293117,3.31476 10.622426,3.2026169 11.10285,3.1007605 c 0.337953,-0.071651 0.392906,-0.076324 0.922687,-0.078465 0.309833,-0.00125 0.571914,0.00262 0.582404,0.00859 0.01049,0.00598 0.05253,0.01166 0.09342,0.012625 0.110649,0.00261 0.810383,0.1946888 1.058919,0.2906733 1.205212,0.4654533 2.148584,1.335826 2.711517,2.5016961 0.07225,0.1496371 0.178833,0.4172951 0.236849,0.5947955 0.05802,0.1775004 0.111337,0.3283041 0.118492,0.3351195 0.0072,0.00682 0.01409,0.040273 0.01541,0.074349 0.0013,0.034077 0.02267,0.1679058 0.04745,0.2973978 0.05897,0.308222 0.06032,1.2588344 0.0024,1.6837851 -0.02126,0.1559457 -0.03321,0.2889839 -0.02655,0.2956409 0.0067,0.00666 0.138034,0.053436 0.291949,0.1039527 0.153915,0.050517 0.400417,0.1487231 0.547783,0.2182356 0.935609,0.4413252 1.6756,1.278645 2.028814,2.295659 0.164077,0.472431 0.178877,0.577005 0.178877,1.263941 0,0.68652 -0.01495,0.792319 -0.178195,1.261545 -0.422007,1.212963 -1.390314,2.155342 -2.589973,2.520622 -0.145789,0.04439 -0.258705,0.09101 -0.250924,0.103599 0.0079,0.01275 -0.0071,0.01613 -0.03391,0.0076 -0.02643,-0.0084 -0.103103,0.0015 -0.170389,0.02186 -0.09815,0.02977 -0.257089,0.03599 -0.803875,0.03142 -0.374845,-0.0031 -3.157373,-0.01188 -6.183395,-0.01946 z m 1.3011148,-4.422896 v -1.499381 h 1.486989 c 1.121626,0 1.486989,-0.0071 1.486989,-0.02909 0,-0.02972 -0.717226,-0.760498 -2.791031,-2.8437655 L 10.016791,6.9556491 9.6710877,7.2882335 C 9.4809509,7.4711549 8.5626748,8.3819542 7.6304741,9.3122317 l -1.6949103,1.6914133 1.5303594,2.5e-5 1.5303593,2.5e-5 v 1.49938 1.499381 H 10 11.003717 v -1.499381 z"
     id="path1022" />
</svg>
