<?xml version="1.0" encoding="UTF-8" standalone="no"?>
<!-- Created with Inkscape (http://www.inkscape.org/) -->

<svg
   xmlns:dc="http://purl.org/dc/elements/1.1/"
   xmlns:cc="http://creativecommons.org/ns#"
   xmlns:rdf="http://www.w3.org/1999/02/22-rdf-syntax-ns#"
   xmlns:svg="http://www.w3.org/2000/svg"
   xmlns="http://www.w3.org/2000/svg"
   xmlns:sodipodi="http://sodipodi.sourceforge.net/DTD/sodipodi-0.dtd"
   xmlns:inkscape="http://www.inkscape.org/namespaces/inkscape"
   width="190.00002mm"
   height="150mm"
   viewBox="0 0 190.00002 150"
   version="1.1"
   id="svg12883"
   sodipodi:docname="g10661.svg"
   inkscape:version="0.92.5 (2060ec1f9f, 2020-04-08)">
  <metadata
     id="metadata16">
    <rdf:RDF>
      <cc:Work
         rdf:about="">
        <dc:format>image/svg+xml</dc:format>
        <dc:type
           rdf:resource="http://purl.org/dc/dcmitype/StillImage" />
        <dc:title></dc:title>
      </cc:Work>
    </rdf:RDF>
  </metadata>
  <sodipodi:namedview
     id="namedview12885"
     pagecolor="#ffffff"
     bordercolor="#000000"
     borderopacity="0.25"
     inkscape:showpageshadow="2"
     inkscape:pageopacity="0.0"
     inkscape:pagecheckerboard="0"
     inkscape:deskcolor="#d1d1d1"
     inkscape:document-units="mm"
     showgrid="false"
     inkscape:zoom="0.41627778"
     inkscape:cx="-207.87399"
     inkscape:cy="283.46457"
     inkscape:window-width="1920"
     inkscape:window-height="1005"
     inkscape:window-x="0"
     inkscape:window-y="0"
     inkscape:window-maximized="1"
     inkscape:current-layer="g10661" />
  <defs
     id="defs12880" />
  <g
     inkscape:label="Livello 1"
     inkscape:groupmode="layer"
     id="layer1"
     transform="translate(-6.8387071,-2.3548388)">
    <g
       id="g10661"
       transform="matrix(2.1548469,0,0,1.9261648,-93.076487,-60.056422)"
       style="display:inline">
      <g
         transform="matrix(0.00210496,0.00137497,0.00132175,-0.00202348,100.68775,99.020101)"
         fill="#ff9800"
         stroke="none"
         id="g2913"
         style="display:inline;fill:#f4f3f2;fill-opacity:1">
        <path
           d="M 3130,12789 C 1862,12678 776,11894 274,10728 -54,9965 -87,9072 184,8283 561,7186 1472,6351 2599,6070 c 146,-37 372,-76 491,-85 140,-10 128,3 114,-122 -97,-823 340,-1627 1086,-1999 266,-132 520,-196 840,-211 l 145,-6 113,-146 c 62,-80 188,-237 280,-348 l 167,-202 50,-6 c 190,-26 347,-142 400,-295 39,-110 39,-273 1,-417 l -14,-51 47,-7 c 243,-34 450,-220 517,-466 23,-83 23,-269 1,-359 -8,-36 -15,-66 -14,-66 1,-1 45,-16 97,-34 132,-43 213,-91 296,-174 124,-125 170,-252 161,-452 l -5,-121 242,-151 C 7934,152 8194,-2 8197,7 c 12,39 98,449 117,560 l 25,142 -110,243 c -105,230 -455,1008 -796,1768 -191,425 -623,1377 -690,1521 l -50,105 73,97 c 134,178 234,369 304,580 18,54 34,96 36,94 3,-2 -7,-41 -21,-87 -15,-45 -24,-84 -21,-87 3,-4 53,6 110,21 l 105,27 173,-119 c 95,-66 261,-177 367,-246 182,-118 197,-126 230,-119 20,4 74,7 121,7 186,-1 326,-87 404,-249 42,-86 65,-179 73,-291 5,-73 8,-84 22,-78 32,13 183,16 244,4 34,-6 98,-29 142,-49 215,-101 341,-287 376,-554 l 12,-94 121,-6 c 210,-10 343,-63 457,-185 69,-74 132,-196 150,-292 19,-106 14,-101 130,-131 412,-107 823,-209 826,-205 9,8 -18,420 -37,572 -17,136 -22,161 -43,183 -141,153 -741,829 -1763,1987 -243,274 -532,600 -643,724 -123,138 -200,231 -197,240 3,8 22,65 44,125 226,626 105,1343 -316,1884 -182,233 -441,439 -722,573 -158,75 -403,146 -593,173 -48,6 -49,7 -43,38 31,179 41,617 18,822 -70,615 -281,1173 -630,1660 -542,757 -1386,1271 -2297,1399 -249,35 -549,45 -775,25 z m 516,-559 c 490,-39 946,-195 1354,-464 913,-602 1398,-1656 1264,-2746 -26,-210 -12,-187 -139,-220 -479,-122 -894,-417 -1168,-829 -62,-94 -197,-353 -197,-378 0,-5 -39,-20 -86,-31 -185,-47 -410,-148 -579,-259 -282,-186 -487,-412 -670,-737 l -27,-49 -122,7 c -579,33 -1110,227 -1581,580 -147,110 -420,381 -526,521 -336,443 -528,922 -584,1457 -136,1303 625,2523 1859,2982 366,137 804,197 1202,166 z M 5972,8084 c 7,-7 -67,-142 -139,-254 -46,-71 -182,-260 -187,-260 -16,0 -199,40 -203,44 -4,3 -1,38 6,77 34,185 171,334 354,384 52,14 159,20 169,9 z m 438,-466 c 0,-72 -24,-167 -59,-236 -52,-101 -49,-99 -109,-62 -29,17 -52,34 -52,36 0,2 24,37 53,77 29,41 75,111 102,155 28,45 53,82 57,82 5,0 8,-24 8,-52 z M 4903,6995 c 26,-9 47,-20 47,-24 0,-8 -163,-103 -260,-151 -103,-52 -217,-99 -323,-136 -113,-38 -111,-41 -56,73 54,113 176,210 310,248 68,19 215,14 282,-10 z m 313,-562 c -4,-21 -22,-70 -41,-109 -58,-119 -189,-224 -316,-253 -105,-25 -266,-7 -341,37 -28,17 -37,32 -17,32 47,0 495,203 639,289 36,22 69,40 74,40 4,1 5,-16 2,-36 z"
           id="path2911"
           style="fill:#f4f3f2;fill-opacity:1" />
      </g>
      <g
         transform="matrix(0.00688955,0,0,-0.00688955,46.35861,91.295322)"
         fill="#ff5722"
         stroke="none"
         id="g6"
         style="fill:#f4f3f2;fill-opacity:1">
        <path
           d="m 8130,8543 c -19,-1 -84,-8 -145,-13 -873,-83 -1730,-711 -2261,-1654 -42,-76 -106,-201 -141,-279 -35,-78 -69,-141 -76,-141 -6,1 -87,32 -179,68 -299,118 -473,148 -736,128 -427,-33 -806,-163 -1167,-400 -320,-209 -616,-513 -820,-842 -94,-152 -201,-383 -260,-564 -30,-91 -55,-172 -55,-181 0,-19 -8,-19 -126,6 -346,72 -827,-7 -1181,-196 C 701,4325 455,4095 292,3828 -19,3320 -85,2640 116,2040 310,1463 739,998 1277,781 c 256,-104 422,-135 703,-135 185,0 217,2 333,27 155,33 359,99 518,168 l 119,51 87,-80 C 3339,538 3664,341 4018,219 4255,138 4458,98 4729,80 5318,40 5900,203 6468,567 l 83,53 97,-86 C 6951,266 7331,92 7765,23 c 153,-24 492,-24 625,0 471,86 872,311 1237,690 105,110 252,294 317,398 l 29,46 171,-82 c 307,-148 455,-194 648,-202 576,-24 1148,277 1523,802 448,627 600,1547 394,2380 -211,854 -779,1491 -1494,1675 -64,17 -127,30 -140,30 -13,0 -26,4 -29,9 -4,5 -15,60 -26,123 -221,1269 -1084,2289 -2175,2573 -257,67 -527,96 -715,78 z"
           id="path4"
           style="fill:#f4f3f2;fill-opacity:1" />
      </g>
    </g>
  </g>
</svg>
