<?xml version="1.0" encoding="UTF-8" standalone="no"?>
<svg
   xmlns:dc="http://purl.org/dc/elements/1.1/"
   xmlns:cc="http://creativecommons.org/ns#"
   xmlns:rdf="http://www.w3.org/1999/02/22-rdf-syntax-ns#"
   xmlns:svg="http://www.w3.org/2000/svg"
   xmlns="http://www.w3.org/2000/svg"
   xmlns:sodipodi="http://sodipodi.sourceforge.net/DTD/sodipodi-0.dtd"
   xmlns:inkscape="http://www.inkscape.org/namespaces/inkscape"
   fill="#3D5A80"
   viewBox="0 0 512 512"
   version="1.1"
   id="svg4"
   sodipodi:docname="file-pdf.svg"
   inkscape:version="0.92.5 (2060ec1f9f, 2020-04-08)">
  <metadata
     id="metadata10">
    <rdf:RDF>
      <cc:Work
         rdf:about="">
        <dc:format>image/svg+xml</dc:format>
        <dc:type
           rdf:resource="http://purl.org/dc/dcmitype/StillImage" />
        <dc:title></dc:title>
      </cc:Work>
    </rdf:RDF>
  </metadata>
  <defs
     id="defs8" />
  <sodipodi:namedview
     pagecolor="#ffffff"
     bordercolor="#666666"
     borderopacity="1"
     objecttolerance="10"
     gridtolerance="10"
     guidetolerance="10"
     inkscape:pageopacity="0"
     inkscape:pageshadow="2"
     inkscape:window-width="906"
     inkscape:window-height="480"
     id="namedview6"
     showgrid="false"
     inkscape:zoom="0.4609375"
     inkscape:cx="34.711864"
     inkscape:cy="256"
     inkscape:window-x="0"
     inkscape:window-y="0"
     inkscape:window-maximized="0"
     inkscape:current-layer="svg4" />
  <!-- Font Awesome Free 5.15.3 by @fontawesome - https://fontawesome.com License - https://fontawesome.com/license/free (Icons: CC BY 4.0, Fonts: SIL OFL 1.1, Code: MIT License) -->
  <path
     d="m 224.567,256.1 c -5,-16 -4.9,-46.9 -2,-46.9 8.4,0 7.6,36.9 2,46.9 z m -1.7,47.2 c -7.7,20.2 -17.3,43.3 -28.4,62.7 18.3,-7 39,-17.2 62.9,-21.9 -12.7,-9.6 -24.9,-23.4 -34.5,-40.8 z m -94.1,124.8 c 0,0.8 13.2,-5.4 34.9,-40.2 -6.7,6.3 -29.1,24.5 -34.9,40.2 z M 290.667,160 h 136 v 328 c 0,13.3 -10.7,24 -24,24 h -336 c -13.3,0 -24,-10.7 -24,-24 V 24 c 0,-13.3 10.7,-24 24,-24 h 200 v 136 c 0,13.2 10.8,24 24,24 z m -8,171.8 c -20,-12.2 -33.3,-29 -42.7,-53.8 4.5,-18.5 11.6,-46.6 6.2,-64.2 -4.7,-29.4 -42.4,-26.5 -47.8,-6.8 -5,18.3 -0.4,44.1 8.1,77 -11.6,27.6 -28.7,64.6 -40.8,85.8 -0.1,0 -0.1,0.1 -0.2,0.1 -27.1,13.9 -73.6,44.5 -54.5,68 5.6,6.9 16,10 21.5,10 17.9,0 35.7,-18 61.1,-61.8 25.8,-8.5 54.1,-19.1 79,-23.2 21.7,11.8 47.1,19.5 64,19.5 29.2,0 31.2,-32 19.7,-43.4 -13.9,-13.6 -54.3,-9.7 -73.6,-7.2 z m 137,-226.8 -98,-98 c -4.5,-4.5 -10.6,-7 -17,-7 h -6 v 128 h 128 v -6.1 c 0,-6.3 -2.5,-12.4 -7,-16.9 z m -74.1,255.3 c 4.1,-2.7 -2.5,-11.9 -42.8,-9 37.1,15.8 42.8,9 42.8,9 z"
     id="path2"
     inkscape:connector-curvature="0" />
</svg>
