<?xml version="1.0" encoding="UTF-8" standalone="no"?>
<!-- Created with Inkscape (http://www.inkscape.org/) -->

<svg
   width="24"
   height="24"
   viewBox="0 0 160 160"
   version="1.1"
   id="svg591"
   xmlns="http://www.w3.org/2000/svg"
   xmlns:svg="http://www.w3.org/2000/svg">
  <defs
     id="defs588" />
  <g
     id="layer1"
     transform="translate(-6.0892401,-4.9036055)">
    <path
       d="M 101.73963,24.346855 C 99.285253,17.866565 96.828515,11.386265 94.37651,4.9036055 85.314044,6.2053455 75.581765,5.7083178 65.844759,5.2136583 l 7.363107,19.4432467 c 9.737009,0.494662 19.474016,0.989322 28.531764,-0.31005"
       fill="#d1d3d5"
       id="path422"
       style="stroke-width:2.36678" />
    <path
       d="M 80.57808,44.09779 C 78.12134,37.619862 75.669337,31.1372 73.210231,24.659273 63.47559,24.164611 53.73858,23.672317 44.685575,24.966956 c 2.452004,6.482661 4.906374,12.96532 7.363114,19.44325 9.053001,-1.301738 18.787643,-0.804713 28.529391,-0.312426"
       fill="#d1d3d5"
       id="path424"
       style="stroke-width:2.36678" />
    <path
       d="m 133.55177,32.720587 c -2.45202,-6.48266 -4.90876,-12.965317 -7.36313,-19.443246 -7.01992,6.679105 -15.39366,9.770141 -24.44901,11.069514 2.4591,6.480294 4.90873,12.960589 7.3631,19.440882 9.05775,-1.297004 17.43857,-4.39041 24.44904,-11.06715"
       fill="#d1d3d5"
       id="path426"
       style="stroke-width:2.36678" />
    <path
       d="M 27.416463,55.091573 20.046254,35.655423 C 27.063809,28.983419 35.435176,25.894746 44.49528,24.593007 42.036177,18.115083 39.581808,11.632415 37.12507,5.1544855 28.074433,6.4515001 19.695968,9.5448985 12.676042,16.221641 L 10.1341,9.5188611 6.0892402,10.934212 57.458239,146.53992 h 4.638923 L 34.786673,74.530089 c 7.012824,-6.662535 15.384191,-9.753584 24.434828,-11.052953 l -7.363109,-19.44088 c -9.05064,1.297006 -17.419638,4.388046 -24.441929,11.055317"
       fill="#d1d3d5"
       id="path428"
       style="stroke-width:2.36678" />
    <path
       d="m 80.57808,44.09779 c 2.454365,6.48266 4.90637,12.962953 7.363104,19.44324 9.737009,0.49468 19.471656,0.989321 28.527016,-0.310032 l -7.3631,-19.440877 c -9.05774,1.297009 -18.790014,0.802348 -28.52702,0.307682"
       fill="#d1d3d5"
       id="path430"
       style="stroke-width:2.36678" />
    <path
       d="m 59.411796,63.848728 c 2.452004,6.480295 4.91111,12.962942 7.365475,19.443236 9.055376,-1.29937 18.790018,-0.80471 28.529392,-0.31242 C 92.847563,76.50162 90.39556,70.018954 87.941184,63.53866 78.206542,63.046367 68.469532,62.551707 59.411796,63.84869"
       fill="#d1d3d5"
       id="path432"
       style="stroke-width:2.36678" />
    <path
       d="m 140.92434,52.161471 c -7.01992,6.676741 -15.40075,9.767778 -24.45614,11.06714 2.45911,6.482665 4.90873,12.96296 7.36313,19.443254 9.05772,-1.29937 17.43618,-4.390398 24.45611,-11.071875 -2.45673,-6.480294 -4.9111,-12.958227 -7.3631,-19.438519"
       fill="#d1d3d5"
       id="path434"
       style="stroke-width:2.36678" />
  </g>
</svg>
