<?xml version="1.0" encoding="iso-8859-1"?>
<!-- Generator: Adobe Illustrator 19.0.0, SVG Export Plug-In . SVG Version: 6.00 Build 0)  -->
<svg version="1.1" id="Layer_1" xmlns="http://www.w3.org/2000/svg" xmlns:xlink="http://www.w3.org/1999/xlink" x="0px" y="0px"
	 viewBox="0 0 512 512" fill="#d1d3d5" style="enable-background:new 0 0 512 512;" xml:space="preserve">
<g>
	<g>
		<path d="M428.295,0H46.43C31.843,0,20.017,11.826,20.017,26.413V148.43c5.895-2.225,12.275-3.453,18.938-3.453H69.62V66.592
			c0-5.157,4.181-9.339,9.339-9.339h316.81c5.157,0,9.339,4.181,9.339,9.339v18.864h30.663c6.664,0,13.044,1.227,18.938,3.453
			V26.413C454.707,11.826,442.882,0,428.295,0z"/>
	</g>
</g>
<g>
	<g>
		<path d="M454.707,139.238c0-10.46-8.479-18.939-18.938-18.939H193.466c-7.342,0-14.023,4.244-17.143,10.89l-22.832,48.632H38.957
			c-10.46,0-18.938,8.479-18.938,18.938v207.425c0,10.459,8.479,18.938,18.938,18.938h244.429
			c0-67.117,54.604-121.721,121.721-121.721c17.656,0,34.443,3.783,49.601,10.574V139.238H454.707z"/>
	</g>
</g>
<g>
	<g>
		<path d="M405.106,338.246c-47.904,0-86.877,38.972-86.877,86.877S357.201,512,405.106,512s86.877-38.972,86.877-86.877
			S453.01,338.246,405.106,338.246z M440.392,442.546h-4.624h-13.24v17.865c0.001,9.621-7.8,17.422-17.422,17.422
			c-9.622,0-17.422-7.8-17.422-17.422v-17.865h-17.865c-9.622,0-17.422-7.8-17.422-17.422c0-9.622,7.8-17.422,17.422-17.422h17.865
			v-17.865c0-9.622,7.8-17.422,17.422-17.422s17.422,7.8,17.422,17.422v17.865h17.865c9.622,0,17.422,7.8,17.422,17.422
			C457.813,434.746,450.014,442.546,440.392,442.546z"/>
	</g>
</g>
<g>
</g>
<g>
</g>
<g>
</g>
<g>
</g>
<g>
</g>
<g>
</g>
<g>
</g>
<g>
</g>
<g>
</g>
<g>
</g>
<g>
</g>
<g>
</g>
<g>
</g>
<g>
</g>
<g>
</g>
</svg>
