<?xml version="1.0" encoding="UTF-8" standalone="no"?>
<!-- Created with Inkscape (http://www.inkscape.org/) -->

<svg
   width="126.00209mm"
   height="24.547001mm"
   viewBox="0 0 126.00209 24.547001"
   version="1.1"
   id="svg5"
   xml:space="preserve"
   inkscape:version="1.2.1 (ef4d3fba62, 2022-07-19, custom)"
   sodipodi:docname="logo.svg"
   inkscape:export-filename="logo_con_scritta.svg"
   inkscape:export-xdpi="96"
   inkscape:export-ydpi="96"
   xmlns:inkscape="http://www.inkscape.org/namespaces/inkscape"
   xmlns:sodipodi="http://sodipodi.sourceforge.net/DTD/sodipodi-0.dtd"
   xmlns:xlink="http://www.w3.org/1999/xlink"
   xmlns="http://www.w3.org/2000/svg"
   xmlns:svg="http://www.w3.org/2000/svg"><sodipodi:namedview
     id="namedview7"
     pagecolor="#7f9c96"
     bordercolor="#eeeeee"
     borderopacity="1"
     inkscape:showpageshadow="0"
     inkscape:pageopacity="0"
     inkscape:pagecheckerboard="0"
     inkscape:deskcolor="#505050"
     inkscape:document-units="mm"
     showgrid="false"
     inkscape:zoom="1.5438243"
     inkscape:cx="190.43618"
     inkscape:cy="-23.318716"
     inkscape:window-width="1920"
     inkscape:window-height="1000"
     inkscape:window-x="0"
     inkscape:window-y="0"
     inkscape:window-maximized="1"
     inkscape:current-layer="layer1"
     showguides="true"><sodipodi:guide
       position="68.632463,-7.8297502"
       orientation="1,0"
       id="guide1812"
       inkscape:locked="false" /><sodipodi:guide
       position="46.25355,13.815488"
       orientation="1,0"
       id="guide4732"
       inkscape:locked="false" /></sodipodi:namedview><defs
     id="defs2"><linearGradient
       inkscape:collect="always"
       id="linearGradient1017"><stop
         style="stop-color:#a2fbfc;stop-opacity:1;"
         offset="0"
         id="stop1013" /><stop
         style="stop-color:#274060;stop-opacity:1;"
         offset="1"
         id="stop1015" /></linearGradient><filter
       inkscape:collect="always"
       style="color-interpolation-filters:sRGB"
       id="filter6253"
       x="-0.0057780921"
       y="-0.009651811"
       width="1.0115668"
       height="1.0194339"><feGaussianBlur
         inkscape:collect="always"
         stdDeviation="0.0035229077"
         id="feGaussianBlur6255" /></filter><radialGradient
       inkscape:collect="always"
       xlink:href="#linearGradient1017"
       id="radialGradient1019"
       cx="44.185806"
       cy="26.461132"
       fx="44.185806"
       fy="26.461132"
       r="44.602854"
       gradientTransform="matrix(1,0,0,0.60260025,0,10.515647)"
       gradientUnits="userSpaceOnUse" /></defs><g
     inkscape:groupmode="layer"
     id="layer2"
     inkscape:label="sfondo"
     style="display:none"
     transform="translate(-16.747924,-48.731393)"><rect
       style="fill:#7f9c96;fill-opacity:1;stroke-width:0.0857178"
       id="rect977"
       width="254.94847"
       height="6.4045839"
       x="20.871193"
       y="67.23185" /><rect
       style="fill:#7f9c96;fill-opacity:1;stroke-width:0.134953"
       id="rect915"
       width="254.94847"
       height="15.875"
       x="20.734608"
       y="51.617203" /></g><g
     inkscape:label="Testo"
     inkscape:groupmode="layer"
     id="layer1"
     transform="translate(-16.747924,-48.731393)"><text
       xml:space="preserve"
       style="font-style:normal;font-variant:normal;font-weight:bold;font-stretch:normal;font-size:16.7167px;font-family:Rajdhani;-inkscape-font-specification:'Rajdhani, Bold';font-variant-ligatures:normal;font-variant-caps:normal;font-variant-numeric:normal;font-variant-east-asian:normal;fill:#274060;fill-opacity:1;stroke:#3d5a80;stroke-width:0.471;stroke-dasharray:none;stroke-opacity:1"
       x="65.714424"
       y="61.05352"
       id="text250"
       transform="scale(0.94383155,1.0595111)"
       inkscape:export-filename="../3a0fe523/logo.svg"
       inkscape:export-xdpi="96"
       inkscape:export-ydpi="96"><tspan
         sodipodi:role="line"
         id="tspan248"
         style="font-style:normal;font-variant:normal;font-weight:bold;font-stretch:normal;font-size:16.7167px;font-family:Rajdhani;-inkscape-font-specification:'Rajdhani, Bold';font-variant-ligatures:normal;font-variant-caps:normal;font-variant-numeric:normal;font-variant-east-asian:normal;fill:#274060;fill-opacity:1;stroke:#3d5a80;stroke-width:0.471;stroke-dasharray:none;stroke-opacity:1"
         x="65.714424"
         y="61.05352">StoreLife</tspan></text><text
       xml:space="preserve"
       style="font-style:normal;font-variant:normal;font-weight:bold;font-stretch:normal;font-size:7.1797px;font-family:Rajdhani;-inkscape-font-specification:'Rajdhani, Bold';font-variant-ligatures:normal;font-variant-caps:normal;font-variant-numeric:normal;font-variant-east-asian:normal;fill:#e0fbfc;fill-opacity:1;stroke:#274060;stroke-width:0.19493;stroke-dasharray:none;stroke-opacity:1"
       x="62.692055"
       y="71.648811"
       id="text1034"
       inkscape:export-filename="../3a0fe523/text1034.svg"
       inkscape:export-xdpi="96"
       inkscape:export-ydpi="96"><tspan
         sodipodi:role="line"
         id="tspan1032"
         style="fill:#e0fbfc;fill-opacity:1;stroke:#274060;stroke-width:0.19493;stroke-dasharray:none;stroke-opacity:1"
         x="62.692055"
         y="71.648811">safe cloud</tspan></text></g><g
     inkscape:groupmode="layer"
     id="layer4"
     inkscape:label="cloud"
     transform="translate(-16.747924,-48.731393)"><g
       style="fill:url(#radialGradient1019);fill-opacity:1;stroke:#3d5a80;stroke-width:0.999353;stroke-dasharray:none;stroke-opacity:1;filter:url(#filter6253)"
       id="g32"
       transform="matrix(0.45664266,0,0,0.45664266,16.938366,48.921612)"
       inkscape:export-filename="../3a0fe523/logo.svg"
       inkscape:export-xdpi="96"
       inkscape:export-ydpi="96"><path
         id="path2956"
         style="fill:url(#radialGradient1019);fill-opacity:1;fill-rule:evenodd;stroke:#3d5a80;stroke-width:0.999353;stroke-dasharray:none;stroke-opacity:1"
         d="m 73.770593,39.639534 c 4.09806,0 7.43279,-3.353816 7.43279,-7.475609 0,-4.121794 -3.33473,-7.476125 -7.43279,-7.476125 -3.05419,0 -5.73225,1.831264 -6.87027,4.622573 H 51.475825 c -1.445462,0 -2.62215,1.183471 -2.62215,2.637264 0,0.99307 0.546183,1.892667 1.424756,2.346131 0.01867,0.0097 0.03794,0.01903 0.05751,0.02736 h 5.27e-4 l 3.827769,1.6601 c 0.229536,0.09966 0.489156,0.103383 0.721616,0.01137 l 2.28292,-1.366759 2.28341,1.366759 c 0.22287,0.08822 0.47092,0.08821 0.69391,0 l 2.28341,-1.304268 2.28291,1.304268 c 0.22276,0.08823 0.47063,0.08823 0.69339,0 l 1.63776,-0.648348 c 1.21002,2.604384 3.79999,4.295302 6.72706,4.295302 z M 56.103353,0.124733 c -0.13092,0.006 -0.57881,0.04935 -0.99912,0.08021 -6.01543,0.512289 -11.920596,4.388442 -15.579463,10.20883 -0.289405,0.469087 -0.730399,1.240613 -0.971564,1.722047 -0.241167,0.481434 -0.475449,0.870279 -0.523678,0.870279 -0.04132,-0.006 -0.599477,-0.197515 -1.233399,-0.419711 -2.060264,-0.728314 -3.259218,-0.913481 -5.071425,-0.790037 -2.942254,0.203678 -5.553757,1.00607 -8.041231,2.468881 -2.204962,1.28999 -4.244559,3.166341 -5.650225,5.196996 -0.647706,0.938175 -1.384998,2.363956 -1.791538,3.481126 -0.206713,0.56167 -0.378971,1.061618 -0.378971,1.117168 0,0.117273 -0.05512,0.117273 -0.868213,-0.03703 -2.384114,-0.4444 -5.698454,0.0432 -8.137699,1.209752 -1.943118,0.925832 -3.638189,2.34544 -4.761344,3.993419 -2.142947,3.135481 -2.597727,7.332582 -1.212729,11.035906 1.336758,3.561363 4.292788,6.431439 7.999884,7.770809 1.763978,0.641908 2.907801,0.833247 4.844037,0.833247 1.274743,0 1.49524,-0.01235 2.294547,-0.16665 1.068023,-0.203683 2.473688,-0.611047 3.569282,-1.03693 l 0.819974,-0.314783 0.599477,0.493776 c 2.080934,1.691186 4.320349,2.907109 6.759594,3.660118 1.633056,0.49995 3.03183,0.746838 4.899159,0.857939 4.058514,0.246887 8.068791,-0.759182 11.98261,-3.005867 l 0.571905,-0.327125 0.668385,0.53081 c 2.087825,1.65415 4.706221,2.728114 7.696705,3.153996 1.05424,0.148134 3.39013,0.148134 4.30658,0 3.24543,-0.530808 6.00852,-1.919554 8.52357,-4.258821 0.7235,-0.678944 1.7364,-1.814629 2.18429,-2.45654 l 0.19982,-0.28392 1.17828,0.506121 c 2.11539,0.913486 3.13518,1.197407 4.46505,1.246785 3.96894,0.148133 7.91031,-1.709702 10.49426,-4.950109 3.08695,-3.869975 4.13431,-9.548406 2.71486,-14.689852 -1.45389,-5.271066 -5.36771,-9.202762 -10.29443,-10.338449 -0.44099,-0.104927 -0.87509,-0.185164 -0.96467,-0.185164 -0.0896,0 -0.17915,-0.02469 -0.19982,-0.05555 -0.0275,-0.03086 -0.10336,-0.370331 -0.17916,-0.759181 -1.5228,-7.832535 -7.46931,-14.128182 -14.98687,-15.881096 -1.77086,-0.413538 -3.6313,-0.592532 -4.92672,-0.481434 z"
         sodipodi:nodetypes="csscsscccccccccccccccccsccccccscccccscccccccccccccccccccsccccc" /></g></g></svg>
