<?xml version="1.0" encoding="UTF-8" standalone="no"?>
<!-- Created with Inkscape (http://www.inkscape.org/) -->

<svg
   width="88.37085mm"
   height="52.916664mm"
   viewBox="0 0 88.37085 52.916664"
   fill="#f2f3f4"
   version="1.1"
   id="svg254"
   inkscape:version="1.2.1 (ef4d3fba62, 2022-07-19, custom)"
   sodipodi:docname="logo_storelife"
   xmlns:inkscape="http://www.inkscape.org/namespaces/inkscape"
   xmlns:sodipodi="http://sodipodi.sourceforge.net/DTD/sodipodi-0.dtd"
   xmlns:xlink="http://www.w3.org/1999/xlink"
   xmlns="http://www.w3.org/2000/svg"
   xmlns:svg="http://www.w3.org/2000/svg">
  <sodipodi:namedview
     id="namedview256"
     pagecolor="#ffffff"
     bordercolor="#525252"
     borderopacity="1"
     inkscape:showpageshadow="0"
     inkscape:pageopacity="0"
     inkscape:pagecheckerboard="true"
     inkscape:deskcolor="#ffffff"
     inkscape:document-units="px"
     showgrid="false"
     showborder="true"
     inkscape:zoom="0.84670104"
     inkscape:cx="-20.077925"
     inkscape:cy="145.26969"
     inkscape:window-width="1920"
     inkscape:window-height="1005"
     inkscape:window-x="0"
     inkscape:window-y="0"
     inkscape:window-maximized="1"
     inkscape:current-layer="layer6" />
  
  <g
     inkscape:groupmode="layer"
     id="layer4"
     inkscape:label="Livello 2"
     transform="translate(-102.11504,-39.982425)"
     sodipodi:insensitive="true"
     style="display:none">
    <g
       id="g535"
       transform="rotate(180,216.06573,77.30198)"
       mask="none"
       style="fill:#cccccc;fill-rule:evenodd">
      <path
         d="m 218.26272,84.773597 c -0.0183,-0.0094 -0.0367,-0.01815 -0.0555,-0.02611 l -3.8546,-1.661933 c -0.2217,-0.0957 -0.47225,-0.09949 -0.69682,-0.0111 l -2.31304,0.911197 -2.31331,-0.911197 c -0.2153,-0.08474 -0.45449,-0.08474 -0.66992,0 l -2.31331,0.911197 -2.31305,-0.911197 c -0.21517,-0.08474 -0.45462,-0.08474 -0.66978,0 l -1.67995,0.661561 c -1.20523,-2.613083 -3.81113,-4.309613 -6.75623,-4.309613 -2.01924,0 -3.85333,0.808047 -5.19588,2.117779 -1.38687,1.352977 -2.24919,3.241316 -2.24919,5.327293 0,4.10528 3.33992,7.445073 7.44507,7.445073 3.06901,0 5.75925,-1.833099 6.89332,-4.627401 H 217.075 c 1.43436,0 2.60133,-1.166968 2.60133,-2.60133 0,-0.979871 -0.54171,-1.866784 -1.41361,-2.314221 z m -1.18759,3.087806 H 200.8757 c -0.40226,0 -0.75726,0.263081 -0.87438,0.647851 -0.72436,2.380287 -2.884,3.979548 -5.37409,3.979548 -3.09734,0 -5.61719,-2.51999 -5.61719,-5.617326 0,-3.097337 2.51985,-5.617196 5.61719,-5.617196 2.47207,0 4.62727,1.583855 5.36312,3.941296 0.0757,0.242324 0.24873,0.442343 0.47773,0.552018 0.22914,0.109802 0.49353,0.119203 0.72959,0.02611 l 2.2005,-0.866677 2.31305,0.911198 c 0.21516,0.08474 0.45462,0.08474 0.66991,0 l 2.31331,-0.911198 2.31331,0.911198 c 0.2153,0.08474 0.45462,0.0846 0.66992,0 l 2.29738,-0.90493 3.47505,1.498338 c 0.24638,0.136437 0.39848,0.393385 0.39848,0.676444 -1.3e-4,0.426418 -0.34704,0.773321 -0.77345,0.773321 z"
         id="path301"
         style="fill:#cccccc;fill-rule:evenodd;stroke-width:0;stroke-dasharray:none"
         sodipodi:nodetypes="sccccccccccsssscsssscscsssccccccccccccsc" />
      <path
         d="m 193.16023,84.490406 c -1.31294,0 -2.38107,1.068133 -2.38107,2.38107 0,1.312936 1.06813,2.38107 2.38107,2.38107 1.31294,0 2.38107,-1.068134 2.38107,-2.38107 0,-1.312937 -1.06826,-2.38107 -2.38107,-2.38107 z m 0,2.934263 c -0.30499,0 -0.55319,-0.248198 -0.55319,-0.553193 0,-0.304994 0.2482,-0.553194 0.55319,-0.553194 0.305,0 0.55319,0.2482 0.55319,0.553194 0,0.304995 -0.24819,0.553193 -0.55319,0.553193 z"
         id="path303"
         style="fill:#cccccc;fill-rule:evenodd;stroke-width:0.130563" />
    </g>
  </g>
  <g
     inkscape:label="Livello 1"
     inkscape:groupmode="layer"
     id="layer1"
     transform="translate(-45.825577,-40.93689)">
    <g
       transform="matrix(0.01484593,0,0,-0.01327041,13.075771,161.02044)"
       fill="#ff5722"
       stroke="none"
       id="g541"
       style="display:inline;fill:#000080;fill-opacity:1;fill-rule:evenodd" />
  </g>
  <g
     inkscape:groupmode="layer"
     id="layer6"
     inkscape:label="Livello 3"
     transform="translate(-45.825577,-40.93689)">
    <path
       id="path2956"
       style="color:#000000;fill:#aa0000;fill-rule:evenodd;stroke:#cccccc;stroke-width:0.184475;stroke-dasharray:none"
       d="m 119.59617,80.576424 c 4.09806,0 7.43279,-3.353816 7.43279,-7.475609 0,-4.121794 -3.33473,-7.476125 -7.43279,-7.476125 -3.05419,0 -5.73225,1.831264 -6.87027,4.622573 H 97.301402 c -1.445462,0 -2.62215,1.183471 -2.62215,2.637264 0,0.99307 0.546183,1.892667 1.424756,2.346131 0.01867,0.0097 0.03794,0.01903 0.05751,0.02736 h 5.27e-4 l 3.827769,1.6601 c 0.229536,0.09966 0.489156,0.103383 0.721616,0.01137 l 2.28292,-0.904383 2.28341,0.904383 c 0.22287,0.08822 0.47092,0.08821 0.69391,0 l 2.28341,-0.904383 2.28291,0.904383 c 0.22276,0.08823 0.47063,0.08823 0.69339,0 l 1.63776,-0.648348 c 1.21002,2.604384 3.79999,4.295302 6.72706,4.295302 z M 101.92893,41.061623 c -0.13092,0.006 -0.57881,0.04935 -0.99912,0.08021 -6.01543,0.512289 -11.920596,4.388442 -15.579463,10.20883 -0.289405,0.469087 -0.730399,1.240613 -0.971564,1.722047 -0.241167,0.481434 -0.475449,0.870279 -0.523678,0.870279 -0.04132,-0.006 -0.599477,-0.197515 -1.233399,-0.419711 -2.060264,-0.728314 -3.259218,-0.913481 -5.071425,-0.790037 -2.942254,0.203678 -5.553757,1.00607 -8.041231,2.468881 -2.204962,1.28999 -4.244559,3.166341 -5.650225,5.196996 -0.647706,0.938175 -1.384998,2.363956 -1.791538,3.481126 -0.206713,0.56167 -0.378971,1.061618 -0.378971,1.117168 0,0.117273 -0.05512,0.117273 -0.868213,-0.03703 -2.384114,-0.4444 -5.698454,0.0432 -8.137699,1.209752 -1.943118,0.925832 -3.638189,2.34544 -4.761344,3.993419 -2.142947,3.135481 -2.597727,7.332582 -1.212729,11.035906 1.336758,3.561363 4.292788,6.431439 7.999884,7.770809 1.763978,0.641908 2.907801,0.833247 4.844037,0.833247 1.274743,0 1.49524,-0.01235 2.294547,-0.16665 1.068023,-0.203683 2.473688,-0.611047 3.569282,-1.03693 l 0.819974,-0.314783 0.599477,0.493776 c 2.080934,1.691186 4.320349,2.907109 6.759594,3.660118 1.633056,0.49995 3.03183,0.746838 4.899159,0.857939 4.058514,0.246887 8.068791,-0.759182 11.98261,-3.005867 l 0.571905,-0.327125 0.668385,0.53081 c 2.087825,1.65415 4.706221,2.728114 7.696705,3.153996 1.05424,0.148134 3.39013,0.148134 4.30658,0 3.24543,-0.530808 6.00852,-1.919554 8.52357,-4.258821 0.7235,-0.678944 1.7364,-1.814629 2.18429,-2.45654 l 0.19982,-0.28392 1.17828,0.506121 c 2.11539,0.913486 3.13518,1.197407 4.46505,1.246785 3.96894,0.148133 7.91031,-1.709702 10.49426,-4.950109 3.08695,-3.869975 4.13431,-9.548406 2.71486,-14.689852 -1.45389,-5.271066 -5.36771,-9.202762 -10.29443,-10.338449 -0.44099,-0.104927 -0.87509,-0.185164 -0.96467,-0.185164 -0.0896,0 -0.17915,-0.02469 -0.19982,-0.05555 -0.0275,-0.03086 -0.10336,-0.370331 -0.17916,-0.759181 -1.5228,-7.832535 -7.46931,-14.128182 -14.98687,-15.881096 -1.77086,-0.413538 -3.6313,-0.592532 -4.92672,-0.481434 z" />
  </g>
</svg>
