<?xml version="1.0" encoding="UTF-8" standalone="no"?>
<!-- Created with Inkscape (http://www.inkscape.org/) -->

<svg
   version="1.1"
   id="svg18"
   width="1390.845"
   height="1392.4558"
   viewBox="0 0 1390.845 1392.4558"
   sodipodi:docname="sfondo_content_type.svg"
   inkscape:version="1.2.1 (2ed6d7ae0b, 2022-08-22, custom)"
   xmlns:inkscape="http://www.inkscape.org/namespaces/inkscape"
   xmlns:sodipodi="http://sodipodi.sourceforge.net/DTD/sodipodi-0.dtd"
   xmlns="http://www.w3.org/2000/svg"
   xmlns:svg="http://www.w3.org/2000/svg">
  <defs
     id="defs22">
    <clipPath
       clipPathUnits="userSpaceOnUse"
       id="clipPath38">
      <path
         d="m 17502,4550 c -662.4,0 -1319.7,49.4 -1967.2,150.6 -524.6,82 -1543,251.7 -2740.1,726.8 h 9597.5 C 20804.4,4853.3 19140.5,4550 17502,4550 m 6722,1678.2 25.1,1734.5 h 2619.6 C 26046.8,7291.2 25157.5,6710.7 24224,6228.2 m 7099.5,8121.4 c -466.8,448.8 -1050.3,771.5 -1698.7,915.3 590.1,1617.9 899.7,3638.9 640.6,6141.1 -20.2,194.9 -178.9,346.6 -374.5,357.4 -668.7,36.7 -2227.2,174.8 -3663.6,686.9 -1448.7,1364.8 -3381.5,2198.2 -5504,2198.2 -269,0 -534.6,-13.4 -796.9,-39.5 l 230,529.6 c 303.8,46.6 602.3,142 883.1,287.4 l 567,-333.1 c 8.5,-5 18,-7.4 27.4,-7.4 12.6,0 25.1,4.4 35.1,13 l 599.8,513 c 17.5,15 23.6,39.5 15.2,60.9 l -241.2,611.8 c 187,254.9 327.5,535.1 420.6,827.9 l 636.9,165.5 c 22.3,5.8 38.5,25.2 40.3,48.2 l 61.3,786.8 c 1.8,23 -11.2,44.6 -32.4,53.8 l -603.5,262.2 c -46.6,303.7 -142,602.2 -287.4,883.1 l 333.1,567 c 11.7,19.9 9.4,45 -5.6,62.5 l -513,599.8 c -10.5,12.2 -25.6,18.9 -41.1,18.9 -6.7,0 -13.4,-1.2 -19.8,-3.8 l -611.8,-241.2 c -254.9,187.1 -535,327.6 -827.9,420.7 l -165.5,636.8 c -5.8,22.4 -25.1,38.5 -48.1,40.3 l -786.9,61.3 c -1.4,0.2 -2.8,0.2 -4.2,0.2 -21.4,0 -41,-12.7 -49.6,-32.5 l -262.2,-603.5 c -303.7,-46.7 -602.2,-142.1 -883,-287.4 l -567,333.1 c -8.6,5 -18,7.4 -27.4,7.4 -12.6,0 -25.1,-4.4 -35.2,-13 l -599.7,-513 c -17.6,-15 -23.7,-39.5 -15.2,-61 l 241.2,-611.7 c -187.1,-255 -327.5,-535 -420.6,-827.9 l -636.9,-165.5 c -22.3,-5.8 -38.5,-25.2 -40.3,-48.2 l -61.3,-786.9 c -1.8,-22.9 11.2,-44.5 32.4,-53.7 l 603.5,-262.2 c 46.6,-303.7 142,-602.2 287.3,-883.1 l -333,-567 c -11.7,-19.9 -9.5,-45 5.5,-62.5 l 513.1,-599.8 c 10.4,-12.2 25.6,-18.9 41,-18.9 6.7,0 13.4,1.2 19.9,3.8 l 611.7,241.2 c 255,-187.1 535.1,-327.6 827.9,-420.7 l 165.6,-636.8 c 5.7,-22.4 25.1,-38.5 48.1,-40.3 l 339.8,-26.5 c -3188.5,-537.5 -5752.5,-2975.5 -6549.1,-6141.7 -70.6,-280.6 -315.5,-457.1 -576.8,-457.1 -86.8,0 -175.5,19.5 -260.2,61.2 -672.9,330.9 -1426.5,516.4 -2222.67,516.4 -414.99,0 -841.62,-50.5 -1274.12,-156.9 -1244.37,-306.3 -2307.87,-1083.9 -3001.32,-2139.3 -255.02,3139.7 435.67,6434.2 2188.88,9178.5 2599.83,4069.5 7211.53,6418.6 11649.73,6418.6 108.8,0 217,-1.4 325.6,-4.2 977.3,-25.5 4722.5,-182.4 8014,-2936.2 483.4,-404.5 1549.7,-1365.6 2510.7,-2890.4 2081.2,-3302.2 2407.9,-7802.3 1125.4,-11636.9 m -6723.9,10343.5 c 131,-96.1 274.9,-168.2 425.3,-216.1 l 85,-327.1 c 3,-11.5 12.9,-19.8 24.8,-20.7 l 404.2,-31.5 c 0.7,0 1.4,-0.1 2.1,-0.1 11,0 21.1,6.5 25.5,16.7 l 134.7,310 c 156,24 309.3,73 453.6,147.7 l 291.3,-171.1 c 4.3,-2.6 9.2,-3.9 14,-3.9 6.5,0 12.9,2.3 18.1,6.7 l 308,263.6 c 9.1,7.7 12.2,20.2 7.8,31.2 l -123.9,314.3 c 96.1,131 168.3,274.8 216.1,425.3 l 327.2,85 c 11.4,3 19.7,12.9 20.7,24.7 l 31.5,404.2 c 0.9,11.8 -5.8,22.9 -16.7,27.7 l -310,134.6 c -23.9,156.1 -72.9,309.4 -147.6,453.7 l 171.1,291.2 c 6,10.2 4.8,23.1 -2.8,32.1 l -263.6,308.1 c -5.4,6.3 -13.2,9.7 -21.1,9.7 -3.4,0 -6.9,-0.6 -10.2,-1.9 l -314.2,-123.9 c -131,96.1 -274.9,168.3 -425.3,216.1 l -85,327.1 c -3,11.5 -12.9,19.8 -24.8,20.7 l -404.2,31.5 c -0.7,0.1 -1.4,0.1 -2.2,0.1 -10.9,0 -21,-6.5 -25.4,-16.7 l -134.7,-310 c -156,-24 -309.3,-73 -453.6,-147.6 l -291.3,171.1 c -4.3,2.5 -9.2,3.8 -14,3.8 -6.5,0 -12.9,-2.3 -18.1,-6.7 l -308.1,-263.5 c -9,-7.7 -12.1,-20.3 -7.7,-31.3 l 123.9,-314.3 c -96.1,-130.9 -168.3,-274.8 -216.1,-425.3 l -327.2,-85 c -11.4,-3 -19.7,-12.9 -20.7,-24.7 l -31.5,-404.2 c -0.9,-11.8 5.8,-22.9 16.7,-27.6 l 310,-134.7 c 23.9,-156 72.9,-309.4 147.6,-453.6 l -171.1,-291.3 c -6,-10.2 -4.8,-23.1 2.8,-32.1 l 263.6,-308.1 c 5.4,-6.3 13.1,-9.7 21.1,-9.7 3.4,0 6.9,0.6 10.2,1.9 l 314.2,123.9"
         id="path36" />
    </clipPath>
    <linearGradient
       x1="-0.029901164"
       y1="-0.03373266"
       x2="1"
       y2="0"
       gradientUnits="userSpaceOnUse"
       gradientTransform="matrix(-20111.8,17597.8,17597.8,20111.8,34458.5,4295.8)"
       spreadMethod="pad"
       id="linearGradient44">
      <stop
         style="stop-opacity:1;stop-color:#dae3fe"
         offset="0"
         id="stop40" />
      <stop
         style="stop-opacity:1;stop-color:#e9effd"
         offset="1"
         id="stop42" />
    </linearGradient>
    <clipPath
       clipPathUnits="userSpaceOnUse"
       id="clipPath54">
      <path
         d="m 28816.1,7962.7 h -1099.8 c 1837.1,0 3330.9,1559.1 3252.2,3441 -51.7,1235.6 -766.7,2295 -1789.1,2813.4 160.9,328.8 310.4,677.7 445.4,1047.8 648.4,-143.8 1231.9,-466.5 1698.7,-915.3 665,-639.5 1093.3,-1534.9 1135,-2533.1 88.2,-2107.6 -1584.9,-3853.8 -3642.4,-3853.8 M 8417.34,8150.9 c -2560.82,721.9 -4322.95,3421.5 -3625.9,6396.6 142.1,606.5 388.1,1171 717.75,1672.7 693.45,1055.4 1756.95,1833 3001.32,2139.3 432.5,106.4 859.13,156.9 1274.12,156.9 796.17,0 1549.77,-185.5 2222.67,-516.4 84.7,-41.7 173.4,-61.2 260.2,-61.2 261.3,0 506.2,176.5 576.8,457.1 796.6,3166.2 3360.6,5604.2 6549.1,6141.7 l 447.1,-34.8 c 1.4,-0.2 2.8,-0.2 4.2,-0.2 21.4,0 40.9,12.7 49.6,32.5 l 32.1,73.9 c 262.3,26.1 527.9,39.5 796.9,39.5 2122.5,0 4055.3,-833.4 5504,-2198.2 -594.5,212 -1168.1,488 -1649.1,847.6 -73.1,54.6 -172.9,98.1 -262.7,98.1 -54.7,0 -105.7,-16.1 -144.5,-55.9 -355.5,-363.7 -756.3,-673.7 -1176.9,-933.3 -780.6,293.8 -1623.7,454.1 -2503.6,454.1 -3383.8,0 -6227.1,-2372 -7035,-5582.7 -63,-250.6 -281.6,-408.1 -514.9,-408.1 -77.6,0 -156.8,17.4 -232.4,54.6 -600.7,295.5 -1273.7,461 -1984.5,461 -370.5,0 -751.47,-45 -1137.64,-140.1 C 7946.83,16842.2 6659.19,15522.8 6265.41,13842.1 5748.77,11637 6745.28,9601.3 8406.61,8604.6 l 10.73,-453.7"
         id="path52" />
    </clipPath>
    <linearGradient
       x1="0"
       y1="0"
       x2="0.87538928"
       y2="0.013480809"
       gradientUnits="userSpaceOnUse"
       gradientTransform="matrix(21532.6,-33412.7,33412.7,21532.6,6876.84,30552.7)"
       spreadMethod="pad"
       id="linearGradient60">
      <stop
         style="stop-opacity:1;stop-color:#4f52ff"
         offset="0"
         id="stop56" />
      <stop
         style="stop-opacity:1;stop-color:#4042e2"
         offset="1"
         id="stop58" />
    </linearGradient>
    <clipPath
       clipPathUnits="userSpaceOnUse"
       id="clipPath70">
      <path
         d="m 27716.3,7962.7 h -3467.2 l 23,1589.3 c 48.9,-20.3 101.1,-30.6 153.5,-30.6 58.2,0 116.5,12.7 170.6,38.3 706.4,334.6 3113.1,1652.7 4583.2,4657.4 1022.4,-518.4 1737.4,-1577.8 1789.1,-2813.4 78.7,-1881.9 -1415.1,-3441 -3252.2,-3441 M 8406.61,8604.6 c -1661.33,996.7 -2657.84,3032.4 -2141.2,5237.5 393.78,1680.7 1681.42,3000.1 3320.65,3403.5 386.17,95.1 767.14,140.1 1137.64,140.1 710.8,0 1383.8,-165.5 1984.5,-461 75.6,-37.2 154.8,-54.6 232.4,-54.6 233.3,0 451.9,157.5 514.9,408.1 807.9,3210.7 3651.2,5582.7 7035,5582.7 879.9,0 1723,-160.3 2503.6,-454.1 -1192.1,-735.6 -2543.2,-1066 -3472.9,-1066 -105.8,0 -206.3,4.3 -300.3,12.8 -12,1 -23.9,1.6 -35.8,1.6 -100.9,0 -198.5,-38.3 -272.7,-107.8 -83,-77.8 -128.8,-187.2 -126.2,-300.9 40.8,-1772.3 -6.6,-3872 763.5,-5971.8 l -10557.2,273.2 c -6.12,0.2 -12.24,0.2 -18.35,0.2 -187.17,0 -367.01,-74.1 -499.85,-206.5 -137.18,-136.7 -212.24,-323.7 -207.66,-517.2 l 139.97,-5919.8"
         id="path68" />
    </clipPath>
    <linearGradient
       x1="0"
       y1="0"
       x2="1"
       y2="0"
       gradientUnits="userSpaceOnUse"
       gradientTransform="matrix(21532.6,-33412.7,33412.7,21532.6,6876.84,30552.7)"
       spreadMethod="pad"
       id="linearGradient76">
      <stop
         style="stop-opacity:1;stop-color:#5d67fe"
         offset="0"
         id="stop72" />
      <stop
         style="stop-opacity:1;stop-color:#515ae7"
         offset="1"
         id="stop74" />
    </linearGradient>
    <clipPath
       clipPathUnits="userSpaceOnUse"
       id="clipPath86">
      <path
         d="M 23935.7,5427.4 H 8755.82 c -154.39,0 -280.71,126.2 -280.71,280.4 l -57.77,2443.1 -10.73,453.7 -139.97,5919.8 c -4.58,193.5 70.48,380.5 207.66,517.2 132.84,132.4 312.68,206.5 499.85,206.5 6.11,0 12.23,0 18.35,-0.2 l 10557.2,-273.2 c 42.2,-115 86.7,-229.7 133.9,-344.6 l -10632.75,285.2 c -4.43,0.1 -8.87,0.2 -13.29,0.2 -131.36,0 -257.53,-52.1 -350.79,-145.1 -96.38,-96.1 -149.4,-227.7 -145.99,-363.8 l 211.46,-8429.7 c 0,-146.1 119.51,-265.6 265.58,-265.6 H 23569.6 c 146.1,0 265.6,119.5 265.6,265.6 l 57.4,3810.5 c 105.1,-69 212,-137.4 321.5,-205.6 18.7,-11.6 38,-21.5 58,-29.8 l -23,-1589.3 -25.1,-1734.5 -7.6,-520.4 c 0,-154.2 -126.3,-280.4 -280.7,-280.4"
         id="path84" />
    </clipPath>
    <linearGradient
       x1="0"
       y1="0"
       x2="1"
       y2="0"
       gradientUnits="userSpaceOnUse"
       gradientTransform="matrix(-3585.16,10755.5,-10755.5,-3585.16,17732.3,6098)"
       spreadMethod="pad"
       id="linearGradient92">
      <stop
         style="stop-opacity:1;stop-color:#09005d"
         offset="0"
         id="stop88" />
      <stop
         style="stop-opacity:1;stop-color:#1a0f91"
         offset="1"
         id="stop90" />
    </linearGradient>
    <clipPath
       clipPathUnits="userSpaceOnUse"
       id="clipPath108">
      <path
         d="M 7300.18,4703.2 H 25083.6 c 31.1,0 56.5,25.5 56.5,56.6 v 653.4 c 0,31.1 -25.4,56.5 -56.5,56.5 H 7300.18 c -31.09,0 -56.54,-25.4 -56.54,-56.5 v -653.4 c 0,-31.1 25.45,-56.6 56.54,-56.6 z"
         id="path106" />
    </clipPath>
    <linearGradient
       x1="0"
       y1="0"
       x2="1"
       y2="0"
       gradientUnits="userSpaceOnUse"
       gradientTransform="matrix(15963.4,-3882.99,3882.99,15963.4,9390.71,6740.8)"
       spreadMethod="pad"
       id="linearGradient114">
      <stop
         style="stop-opacity:1;stop-color:#09005d"
         offset="0"
         id="stop110" />
      <stop
         style="stop-opacity:1;stop-color:#1a0f91"
         offset="1"
         id="stop112" />
    </linearGradient>
    <clipPath
       clipPathUnits="userSpaceOnUse"
       id="clipPath180">
      <path
         d="m 24425.6,9521.4 c -52.4,0 -104.6,10.3 -153.5,30.6 -20,8.3 -39.3,18.2 -58,29.8 -109.5,68.2 -216.4,136.6 -321.5,205.6 -667.2,438.1 -1246.7,892.2 -1749.1,1357.1 -52.5,48.6 -104,97.2 -154.9,146 -1040.8,999.4 -1736.9,2047.9 -2204.6,3104.3 -11.6,26.2 -23.1,52.6 -34.4,78.8 -22.5,52.1 -44.5,104.3 -66,156.5 -47.2,114.9 -91.7,229.6 -133.9,344.6 -770.1,2099.8 -722.7,4199.5 -763.5,5971.8 -2.6,113.7 43.2,223.1 126.2,300.9 74.2,69.5 171.8,107.8 272.7,107.8 11.9,0 23.8,-0.6 35.8,-1.6 94,-8.5 194.5,-12.8 300.3,-12.8 929.7,0 2280.8,330.4 3472.9,1066 420.6,259.6 821.4,569.6 1176.9,933.3 38.8,39.8 89.8,55.9 144.5,55.9 89.8,0 189.6,-43.5 262.7,-98.1 481,-359.6 1054.6,-635.6 1649.1,-847.6 1436.4,-512.1 2994.9,-650.2 3663.6,-686.9 195.6,-10.8 354.3,-162.5 374.5,-357.4 259.1,-2502.2 -50.5,-4523.2 -640.6,-6141.1 -135,-370.1 -284.5,-719 -445.4,-1047.8 -1470.1,-3004.7 -3876.8,-4322.8 -4583.2,-4657.4 -54.1,-25.6 -112.4,-38.3 -170.6,-38.3 m -4905.5,11225.3 c -36.2,0 -70,-14.1 -95.1,-39.8 -25,-25.4 -38.4,-59.1 -37.8,-94.8 l 3.9,-213.8 c 28.2,-1604.1 60.1,-3422.2 712.3,-5207.7 730.2,-1999.1 2126.9,-3636.8 4269.9,-5006.7 21.7,-13.9 46.7,-20.9 71.7,-20.9 20.7,0 41.4,4.8 60.3,14.5 558.4,287.1 1987.3,1129.1 3192.3,2745.2 1613.4,2163.9 2287.5,4904.2 2003.4,8144.9 -5.7,65.1 -57,115.7 -122.1,120.6 -1222,90 -3511.9,400.2 -5117.1,1465.3 -22.4,14.8 -47.9,22.1 -73.3,22.1 -31.8,0 -63.4,-11.4 -88.3,-33.8 -1461,-1309.1 -3453,-1895.1 -4780.1,-1895.1 v 0 m 4924.8,-10529.3 c -14.7,0 -29.5,4.2 -42.3,12.3 -2132.5,1363.3 -3522.1,2992.1 -4248.1,4979.6 -649.1,1776.9 -681,3590.1 -709,5190 l -3.9,213.8 c -0.4,21 7.5,40.8 22.2,55.7 14.9,15.1 34.9,23.5 57.4,23.5 v 0 c 1336.4,0 3343.6,590.3 4815.3,1909 14.7,13.2 33.3,19.9 52,19.9 15,0 30,-4.3 43.2,-13 1615.6,-1072 3915.9,-1383.8 5143.3,-1474.3 38.2,-2.8 68.4,-32.7 71.8,-71.1 282.8,-3226.9 -387.6,-5954.7 -1992.8,-8107.6 -1198.2,-1607 -2618.5,-2444 -3173.6,-2729.3 v 0 c -11.1,-5.7 -23.3,-8.5 -35.5,-8.5 m -2005.6,7690.9 c -261.8,0 -474.1,-212.3 -474.1,-474.1 v -3279.3 c 0,-261.8 212.3,-474.1 474.1,-474.1 h 4272.9 c 261.8,0 474.1,212.3 474.1,474.1 v 3279.3 c 0,261.8 -212.3,474.1 -474.1,474.1 h -4272.9 m 1353.3,1855.1 h 1566.3 c 309.2,0 559.9,-250.7 559.9,-560 v -863.9 c 0,-125.6 101.8,-227.3 227.3,-227.3 h 252.8 c 125.5,0 227.2,101.7 227.2,227.3 v 863.9 c 0,699.9 -567.3,1267.3 -1267.2,1267.3 h -1566.3 c -699.9,0 -1267.3,-567.4 -1267.3,-1267.3 v -863.9 c 0,-125.6 101.8,-227.3 227.3,-227.3 h 252.8 c 125.5,0 227.2,101.7 227.2,227.3 v 863.9 c 0,309.3 250.7,560 560,560 m 1223.7,-5241.3 h -881.1 c -113.6,0 -197.3,106.3 -170.8,216.7 l 205.6,855.9 c -242.7,145.1 -401.4,416.3 -385.2,723.1 21,397.5 343.1,722.9 740.4,747.6 16.9,1 33.8,1.5 50.5,1.5 437.5,0 792.1,-354.5 792.1,-792 0,-289.1 -155,-541.9 -386.3,-680.2 l 205.6,-855.9 c 26.5,-110.4 -57.2,-216.7 -170.8,-216.7"
         id="path178" />
    </clipPath>
    <linearGradient
       x1="0"
       y1="0"
       x2="1"
       y2="0"
       gradientUnits="userSpaceOnUse"
       gradientTransform="matrix(-4645.68,-4544.68,-4544.68,4645.68,36687.5,29678.7)"
       spreadMethod="pad"
       id="linearGradient186">
      <stop
         style="stop-opacity:1;stop-color:#ff928e"
         offset="0"
         id="stop182" />
      <stop
         style="stop-opacity:1;stop-color:#fe7062"
         offset="1"
         id="stop184" />
    </linearGradient>
    <clipPath
       clipPathUnits="userSpaceOnUse"
       id="clipPath196">
      <path
         d="m 24445,10163 c -25,0 -50,7 -71.7,20.9 -2143,1369.9 -3539.7,3007.6 -4269.9,5006.7 -652.2,1785.5 -684.1,3603.6 -712.3,5207.7 l -3.9,213.8 c -0.6,35.7 12.8,69.4 37.8,94.8 25.1,25.7 58.9,39.8 95.1,39.8 v 0 c 1327.1,0 3319.1,586 4780.1,1895.1 24.9,22.4 56.5,33.8 88.3,33.8 25.4,0 50.9,-7.3 73.3,-22.1 1605.2,-1065.1 3895.1,-1375.3 5117.1,-1465.3 65.1,-4.9 116.4,-55.5 122.1,-120.6 284.1,-3240.7 -390,-5981 -2003.4,-8144.9 -1205,-1616.1 -2633.9,-2458.1 -3192.3,-2745.2 -18.9,-9.7 -39.6,-14.5 -60.3,-14.5 m -4923.8,10529.3 c -22.5,0 -42.5,-8.4 -57.4,-23.5 -14.7,-14.9 -22.6,-34.7 -22.2,-55.7 l 3.9,-213.8 c 28,-1599.9 59.9,-3413.1 709,-5190 726,-1987.5 2115.6,-3616.3 4248.1,-4979.6 12.8,-8.1 27.6,-12.3 42.3,-12.3 12.2,0 24.4,2.8 35.5,8.5 v 0 c 555.1,285.3 1975.4,1122.3 3173.6,2729.3 1605.2,2152.9 2275.6,4880.7 1992.8,8107.6 -3.4,38.4 -33.6,68.3 -71.8,71.1 -1227.4,90.5 -3527.7,402.3 -5143.3,1474.3 -13.2,8.7 -28.2,13 -43.2,13 -18.7,0 -37.3,-6.7 -52,-19.9 -1471.7,-1318.7 -3478.9,-1909 -4815.3,-1909 v 0"
         id="path194" />
    </clipPath>
    <linearGradient
       x1="0"
       y1="0"
       x2="1"
       y2="0"
       gradientUnits="userSpaceOnUse"
       gradientTransform="matrix(-4645.68,-4544.68,-4544.68,4645.68,36687.5,29678.7)"
       spreadMethod="pad"
       id="linearGradient202">
      <stop
         style="stop-opacity:1;stop-color:#ffd5d3"
         offset="0"
         id="stop198" />
      <stop
         style="stop-opacity:1;stop-color:#ffc7c2"
         offset="1"
         id="stop200" />
    </linearGradient>
    <clipPath
       clipPathUnits="userSpaceOnUse"
       id="clipPath212">
      <path
         d="m 26398.9,18112.2 h -252.8 c -125.5,0 -227.3,101.7 -227.3,227.3 v 863.9 c 0,309.3 -250.7,560 -559.9,560 h -1566.3 c -309.3,0 -560,-250.7 -560,-560 v -863.9 c 0,-125.6 -101.7,-227.3 -227.2,-227.3 h -252.8 c -125.5,0 -227.3,101.7 -227.3,227.3 v 863.9 c 0,699.9 567.4,1267.3 1267.3,1267.3 h 1566.3 c 699.9,0 1267.2,-567.4 1267.2,-1267.3 v -863.9 c 0,-125.6 -101.7,-227.3 -227.2,-227.3"
         id="path210" />
    </clipPath>
    <linearGradient
       x1="0"
       y1="0"
       x2="1"
       y2="0"
       gradientUnits="userSpaceOnUse"
       gradientTransform="matrix(-4645.68,-4544.68,-4544.68,4645.68,36687.5,29678.7)"
       spreadMethod="pad"
       id="linearGradient218">
      <stop
         style="stop-opacity:1;stop-color:#ffd5d3"
         offset="0"
         id="stop214" />
      <stop
         style="stop-opacity:1;stop-color:#ffc7c2"
         offset="1"
         id="stop216" />
    </linearGradient>
    <clipPath
       clipPathUnits="userSpaceOnUse"
       id="clipPath228">
      <path
         d="m 26712.2,13680.8 h -4272.9 c -261.8,0 -474.1,212.3 -474.1,474.1 v 3279.3 c 0,261.8 212.3,474.1 474.1,474.1 h 4272.9 c 261.8,0 474.1,-212.3 474.1,-474.1 v -3279.3 c 0,-261.8 -212.3,-474.1 -474.1,-474.1 m -2136.5,3386.1 c -16.7,0 -33.6,-0.5 -50.5,-1.5 -397.3,-24.7 -719.4,-350.1 -740.4,-747.6 -16.2,-306.8 142.5,-578 385.2,-723.1 l -205.6,-855.9 c -26.5,-110.4 57.2,-216.7 170.8,-216.7 h 881.1 c 113.6,0 197.3,106.3 170.8,216.7 l -205.6,855.9 c 231.3,138.3 386.3,391.1 386.3,680.2 0,437.5 -354.6,792 -792.1,792"
         id="path226" />
    </clipPath>
    <linearGradient
       x1="0"
       y1="0"
       x2="1"
       y2="0"
       gradientUnits="userSpaceOnUse"
       gradientTransform="matrix(-4645.68,-4544.68,-4544.68,4645.68,36687.5,29678.7)"
       spreadMethod="pad"
       id="linearGradient234">
      <stop
         style="stop-opacity:1;stop-color:#ffd5d3"
         offset="0"
         id="stop230" />
      <stop
         style="stop-opacity:1;stop-color:#ffc7c2"
         offset="1"
         id="stop232" />
    </linearGradient>
    <clipPath
       clipPathUnits="userSpaceOnUse"
       id="clipPath244">
      <path
         d="m 8196.96,18980.3 c 0,0 346.07,-18.3 388.5,-730.3 0,0 -802.48,-719.4 -1886.46,-890.6 -81.39,-12.9 113.77,555.5 143.1,632.5 139.59,366.3 579.2,602.2 1354.86,988.4 z"
         id="path242" />
    </clipPath>
    <linearGradient
       x1="0"
       y1="0"
       x2="1"
       y2="0"
       gradientUnits="userSpaceOnUse"
       gradientTransform="matrix(-1254.58,-1310.35,1310.35,-1254.58,7847.27,18303.5)"
       spreadMethod="pad"
       id="linearGradient250">
      <stop
         style="stop-opacity:1;stop-color:#09005d"
         offset="0"
         id="stop246" />
      <stop
         style="stop-opacity:1;stop-color:#1a0f91"
         offset="1"
         id="stop248" />
    </linearGradient>
    <clipPath
       clipPathUnits="userSpaceOnUse"
       id="clipPath262">
      <path
         d="m 5034.03,14620 c 306.03,268.2 793.65,569.1 1497.57,655.4 l 238.06,-145.6 c 0,0 -151.8,-224 -429.12,-460.5 -254.88,-148 -648.45,-348.5 -974.73,-392 -317.23,-42.2 -364.01,149.5 -331.78,342.7 z"
         id="path260" />
    </clipPath>
    <linearGradient
       x1="0"
       y1="0"
       x2="1"
       y2="0"
       gradientUnits="userSpaceOnUse"
       gradientTransform="matrix(-2373.09,-1741.72,1741.72,-2373.09,6182.99,15014.6)"
       spreadMethod="pad"
       id="linearGradient268">
      <stop
         style="stop-opacity:1;stop-color:#09005d"
         offset="0"
         id="stop264" />
      <stop
         style="stop-opacity:1;stop-color:#1a0f91"
         offset="1"
         id="stop266" />
    </linearGradient>
    <clipPath
       clipPathUnits="userSpaceOnUse"
       id="clipPath284">
      <path
         d="m 11987,22044 c 0,0 -368.2,-1845.1 -2172.09,-2575 l -641.65,75.6 -151.41,-241.4 1505.15,-48 c 0,0 1286.5,509.6 1968.2,1898.1 22.5,45.9 397.9,821 -508.2,890.7 z"
         id="path282" />
    </clipPath>
    <linearGradient
       x1="0"
       y1="0"
       x2="1"
       y2="0"
       gradientUnits="userSpaceOnUse"
       gradientTransform="matrix(1611.09,-1915.89,1915.89,1611.09,10017,21451.6)"
       spreadMethod="pad"
       id="linearGradient290">
      <stop
         style="stop-opacity:1;stop-color:#febbba"
         offset="0"
         id="stop286" />
      <stop
         style="stop-opacity:1;stop-color:#ff928e"
         offset="1"
         id="stop288" />
    </linearGradient>
    <clipPath
       clipPathUnits="userSpaceOnUse"
       id="clipPath300">
      <path
         d="m 11789.7,19319.2 c 0,0 418.6,1138 508.6,2243.8 0,0 -306.3,263.2 -497.7,376.8 -62,36.8 -85.4,114.6 -54.1,179.5 140.8,291.6 991.9,1436.4 1055.7,1452.3 346.5,86.5 1767.8,762.3 2768.8,-606.9 429.6,-587.6 -85.2,-2396.5 -2034.2,-4269.9 -627.1,-102.1 -1213.5,78.6 -1747.1,624.4 z"
         id="path298" />
    </clipPath>
    <linearGradient
       x1="0"
       y1="0"
       x2="1"
       y2="0"
       gradientUnits="userSpaceOnUse"
       gradientTransform="matrix(-4847.92,-5049.91,-5049.91,4847.92,18005.4,26167.2)"
       spreadMethod="pad"
       id="linearGradient306">
      <stop
         style="stop-opacity:1;stop-color:#ff928e"
         offset="0"
         id="stop302" />
      <stop
         style="stop-opacity:1;stop-color:#fe7062"
         offset="1"
         id="stop304" />
    </linearGradient>
    <clipPath
       clipPathUnits="userSpaceOnUse"
       id="clipPath316">
      <path
         d="m 13402.9,21313.7 c 0,0 -1163.2,-1377.3 -2650.3,-1578.6 0,0 -384.3,350.3 -670.1,225.3 -285.82,-125.1 -677.69,-677.3 -677.69,-677.3 h 1909.49 c 0,0 1805.4,63.6 2707.6,1158.4 -72.6,383.1 -290,612 -619,872.2 z"
         id="path314" />
    </clipPath>
    <linearGradient
       x1="0"
       y1="0"
       x2="1"
       y2="0"
       gradientUnits="userSpaceOnUse"
       gradientTransform="matrix(-3220.31,4405.56,-4405.56,-3220.31,11895.6,19708.4)"
       spreadMethod="pad"
       id="linearGradient322">
      <stop
         style="stop-opacity:1;stop-color:#febbba"
         offset="0"
         id="stop318" />
      <stop
         style="stop-opacity:1;stop-color:#ff928e"
         offset="1"
         id="stop320" />
    </linearGradient>
    <clipPath
       clipPathUnits="userSpaceOnUse"
       id="clipPath332">
      <path
         d="m 14081.4,24537.6 254.5,-848.8 c 11.7,-38.9 -2.7,-81 -36.2,-103.9 -122.5,-84 -442.8,-250.9 -882.1,-88.7 -50.2,18.6 -84.7,65.5 -89,118.9 l -60.4,739.5 z"
         id="path330" />
    </clipPath>
    <linearGradient
       x1="0"
       y1="0"
       x2="1"
       y2="0"
       gradientUnits="userSpaceOnUse"
       gradientTransform="matrix(-118.618,1067.56,-1067.56,-118.618,13865.5,23359.2)"
       spreadMethod="pad"
       id="linearGradient338">
      <stop
         style="stop-opacity:1;stop-color:#febbba"
         offset="0"
         id="stop334" />
      <stop
         style="stop-opacity:1;stop-color:#ff928e"
         offset="1"
         id="stop336" />
    </linearGradient>
    <clipPath
       clipPathUnits="userSpaceOnUse"
       id="clipPath348">
      <path
         d="m 12591.2,25225.1 c 0,0 125.1,-879.9 463.1,-1150.5 338,-270.6 996.6,-66.9 1219,596.5 l -443.2,1134.2 z"
         id="path346" />
    </clipPath>
    <linearGradient
       x1="0"
       y1="0"
       x2="1"
       y2="0"
       gradientUnits="userSpaceOnUse"
       gradientTransform="matrix(522.83,1724.42,-1724.42,522.83,13232.9,24290.5)"
       spreadMethod="pad"
       id="linearGradient354">
      <stop
         style="stop-opacity:1;stop-color:#febbba"
         offset="0"
         id="stop350" />
      <stop
         style="stop-opacity:1;stop-color:#ff928e"
         offset="1"
         id="stop352" />
    </linearGradient>
    <clipPath
       clipPathUnits="userSpaceOnUse"
       id="clipPath364">
      <path
         d="m 13880,25071.3 c -25.7,-8.3 -52.6,8.2 -56.6,34.9 -12.2,81.2 -42.7,242 -104.3,351.5 0,0 32.2,115.4 -291.8,-59 -324,-174.4 -810.6,-430.5 -1097.2,-278 -279.3,148.7 -562.3,897.2 176,758.6 28.1,-5.3 53.9,17.1 51.8,45.6 -9.1,123 3.1,406 289.8,496.9 268.2,85 415,-36.1 475.5,-109.2 17.8,-21.5 50.8,-21 67.8,1.1 80.4,104.9 298.5,328.2 619.8,186.6 264.5,-116.6 305.7,-279.6 301.3,-381.1 -1.4,-32.9 32,-55.2 61.9,-41.4 81,37.3 211.3,56.7 336.2,-99.7 172.6,-216.3 -74.1,-403.8 -148.1,-453 -12.1,-8.1 -19.6,-21.4 -19.7,-36 -0.7,-112.4 -18.2,-603 -264.1,-879.7 -21.3,-24 -60.6,-16.9 -73,12.6 l -189.3,451.1 c -8.8,20.9 -32.2,31.7 -53.8,24.7 z"
         id="path362" />
    </clipPath>
    <linearGradient
       x1="0"
       y1="0"
       x2="1"
       y2="0"
       gradientUnits="userSpaceOnUse"
       gradientTransform="matrix(-486.093,-2772.53,2772.53,-486.093,13704.7,27456.8)"
       spreadMethod="pad"
       id="linearGradient370">
      <stop
         style="stop-opacity:1;stop-color:#09005d"
         offset="0"
         id="stop366" />
      <stop
         style="stop-opacity:1;stop-color:#1a0f91"
         offset="1"
         id="stop368" />
    </linearGradient>
    <clipPath
       clipPathUnits="userSpaceOnUse"
       id="clipPath380">
      <path
         d="m 13876,24979.7 c 0,0 115.6,470.9 291.2,318 175.7,-152.9 -45.7,-489.3 -246.9,-553.5 z"
         id="path378" />
    </clipPath>
    <linearGradient
       x1="0"
       y1="0"
       x2="1"
       y2="0"
       gradientUnits="userSpaceOnUse"
       gradientTransform="matrix(522.831,1724.42,-1724.42,522.831,13774.4,24126.3)"
       spreadMethod="pad"
       id="linearGradient386">
      <stop
         style="stop-opacity:1;stop-color:#febbba"
         offset="0"
         id="stop382" />
      <stop
         style="stop-opacity:1;stop-color:#ff928e"
         offset="1"
         id="stop384" />
    </linearGradient>
    <clipPath
       clipPathUnits="userSpaceOnUse"
       id="clipPath396">
      <path
         d="m 9500.94,19176.2 -857.34,2859.2 c -34.97,116.6 -138.6,199.4 -260.08,207.7 l -1157.53,79.2 c -117.66,8 -205.17,-106.9 -166.11,-218.2 l 958.43,-2730.5 c 30.88,-87.9 109.85,-150.1 202.6,-159.5 l 1139.87,-126.5 z"
         id="path394" />
    </clipPath>
    <linearGradient
       x1="0"
       y1="0"
       x2="1"
       y2="0"
       gradientUnits="userSpaceOnUse"
       gradientTransform="matrix(-2450.49,0,0,-2450.49,9500.94,20705.1)"
       spreadMethod="pad"
       id="linearGradient402">
      <stop
         style="stop-opacity:1;stop-color:#09005d"
         offset="0"
         id="stop398" />
      <stop
         style="stop-opacity:1;stop-color:#1a0f91"
         offset="1"
         id="stop400" />
    </linearGradient>
    <clipPath
       clipPathUnits="userSpaceOnUse"
       id="clipPath414">
      <path
         d="m 9360.78,19087.6 c 1.85,0 3.71,0 5.59,0.1 l 2428.83,122.8 c 60,3 106.2,54.1 103.2,114.2 -3.1,60 -54.4,107.2 -114.2,103.2 l -2428.83,-122.8 c -60.04,-3 -106.25,-54.1 -103.22,-114.2 2.95,-58.1 51.03,-103.3 108.63,-103.3 z"
         id="path412" />
    </clipPath>
    <linearGradient
       x1="0"
       y1="0"
       x2="1"
       y2="0"
       gradientUnits="userSpaceOnUse"
       gradientTransform="matrix(1959.43,-537.029,537.029,1959.43,9203.52,19633.9)"
       spreadMethod="pad"
       id="linearGradient420">
      <stop
         style="stop-opacity:1;stop-color:#09005d"
         offset="0"
         id="stop416" />
      <stop
         style="stop-opacity:1;stop-color:#1a0f91"
         offset="1"
         id="stop418" />
    </linearGradient>
    <clipPath
       clipPathUnits="userSpaceOnUse"
       id="clipPath430">
      <path
         d="m 12298.3,21546.2 c -9.3,0 -16.8,7.5 -16.8,16.8 -1.7,512.7 195.6,1191.2 197.6,1198 2.6,8.9 11.9,14 20.8,11.4 9,-2.6 14.1,-11.9 11.5,-20.8 -2,-6.8 -197.9,-680.8 -196.3,-1188.5 0.1,-9.3 -7.5,-16.9 -16.8,-16.9 z"
         id="path428" />
    </clipPath>
    <linearGradient
       x1="0"
       y1="0"
       x2="1"
       y2="0"
       gradientUnits="userSpaceOnUse"
       gradientTransform="matrix(-757.449,-11664.7,-11664.7,757.449,12830.7,28881.7)"
       spreadMethod="pad"
       id="linearGradient436">
      <stop
         style="stop-opacity:1;stop-color:#e1473d"
         offset="0"
         id="stop432" />
      <stop
         style="stop-opacity:1;stop-color:#e9605a"
         offset="1"
         id="stop434" />
    </linearGradient>
    <clipPath
       clipPathUnits="userSpaceOnUse"
       id="clipPath446">
      <path
         d="m 13402.9,21296.8 c -3.7,0 -7.4,1.2 -10.5,3.6 -7.2,5.8 -8.5,16.4 -2.7,23.7 5.3,6.7 533.2,677.8 713.9,1135.7 3.4,8.7 13.1,13.1 21.8,9.5 8.7,-3.4 12.9,-13.2 9.5,-21.9 -182.5,-462.4 -713.5,-1137.4 -718.8,-1144.2 -3.3,-4.2 -8.3,-6.4 -13.2,-6.4 z"
         id="path444" />
    </clipPath>
    <linearGradient
       x1="0"
       y1="0"
       x2="1"
       y2="0"
       gradientUnits="userSpaceOnUse"
       gradientTransform="matrix(-757.449,-11664.7,-11664.7,757.449,14209.7,28792.1)"
       spreadMethod="pad"
       id="linearGradient452">
      <stop
         style="stop-opacity:1;stop-color:#e1473d"
         offset="0"
         id="stop448" />
      <stop
         style="stop-opacity:1;stop-color:#e9605a"
         offset="1"
         id="stop450" />
    </linearGradient>
    <clipPath
       clipPathUnits="userSpaceOnUse"
       id="clipPath462">
      <path
         d="m 14151.2,20264.9 -96,135.8 c -5.4,7.6 -3.6,18.1 4,23.5 7.6,5.4 18.1,3.6 23.5,-4 l 80.3,-113.6 c 749.1,328.4 1212.8,1224.6 1217.5,1233.7 4.2,8.2 14.3,11.6 22.6,7.3 8.3,-4.2 11.6,-14.4 7.3,-22.6 -4.7,-9.3 -478.9,-926 -1246.7,-1254.7 z"
         id="path460" />
    </clipPath>
    <linearGradient
       x1="0"
       y1="0"
       x2="1"
       y2="0"
       gradientUnits="userSpaceOnUse"
       gradientTransform="matrix(-757.449,-11664.7,-11664.7,757.449,15235.7,28725.5)"
       spreadMethod="pad"
       id="linearGradient468">
      <stop
         style="stop-opacity:1;stop-color:#e1473d"
         offset="0"
         id="stop464" />
      <stop
         style="stop-opacity:1;stop-color:#e9605a"
         offset="1"
         id="stop466" />
    </linearGradient>
  </defs>
  <sodipodi:namedview
     id="namedview20"
     pagecolor="#505050"
     bordercolor="#eeeeee"
     borderopacity="1"
     inkscape:showpageshadow="0"
     inkscape:pageopacity="0"
     inkscape:pagecheckerboard="0"
     inkscape:deskcolor="#505050"
     showgrid="false"
     inkscape:zoom="0.34"
     inkscape:cx="129.41176"
     inkscape:cy="600"
     inkscape:window-width="1920"
     inkscape:window-height="1005"
     inkscape:window-x="0"
     inkscape:window-y="0"
     inkscape:window-maximized="1"
     inkscape:current-layer="g28">
    <inkscape:page
       x="0"
       y="0"
       id="page24"
       width="1390.845"
       height="1392.4558" />
  </sodipodi:namedview>
  <g
     id="g26"
     inkscape:groupmode="layer"
     inkscape:label="Page 1"
     transform="matrix(1.3333333,0,0,-1.3333333,-934.08906,4214.5336)">
    <g
       id="g28"
       transform="scale(0.1)">
      <path
         d="M 7005.6681,21165.584 H 17437.006 V 31609.003 H 7005.6681 Z"
         style="fill:#ffffff;fill-opacity:1;fill-rule:nonzero;stroke:none;stroke-width:0.281331"
         id="path30" />
      <g
         id="g32"
         transform="matrix(0.36966488,0,0,0.36966488,5448.2281,19584.029)">
        <g
           id="g34"
           clip-path="url(#clipPath38)">
          <path
             d="m 17502,4550 c -662.4,0 -1319.7,49.4 -1967.2,150.6 -524.6,82 -1543,251.7 -2740.1,726.8 h 9597.5 C 20804.4,4853.3 19140.5,4550 17502,4550 m 6722,1678.2 25.1,1734.5 h 2619.6 C 26046.8,7291.2 25157.5,6710.7 24224,6228.2 m 7099.5,8121.4 c -466.8,448.8 -1050.3,771.5 -1698.7,915.3 590.1,1617.9 899.7,3638.9 640.6,6141.1 -20.2,194.9 -178.9,346.6 -374.5,357.4 -668.7,36.7 -2227.2,174.8 -3663.6,686.9 -1448.7,1364.8 -3381.5,2198.2 -5504,2198.2 -269,0 -534.6,-13.4 -796.9,-39.5 l 230,529.6 c 303.8,46.6 602.3,142 883.1,287.4 l 567,-333.1 c 8.5,-5 18,-7.4 27.4,-7.4 12.6,0 25.1,4.4 35.1,13 l 599.8,513 c 17.5,15 23.6,39.5 15.2,60.9 l -241.2,611.8 c 187,254.9 327.5,535.1 420.6,827.9 l 636.9,165.5 c 22.3,5.8 38.5,25.2 40.3,48.2 l 61.3,786.8 c 1.8,23 -11.2,44.6 -32.4,53.8 l -603.5,262.2 c -46.6,303.7 -142,602.2 -287.4,883.1 l 333.1,567 c 11.7,19.9 9.4,45 -5.6,62.5 l -513,599.8 c -10.5,12.2 -25.6,18.9 -41.1,18.9 -6.7,0 -13.4,-1.2 -19.8,-3.8 l -611.8,-241.2 c -254.9,187.1 -535,327.6 -827.9,420.7 l -165.5,636.8 c -5.8,22.4 -25.1,38.5 -48.1,40.3 l -786.9,61.3 c -1.4,0.2 -2.8,0.2 -4.2,0.2 -21.4,0 -41,-12.7 -49.6,-32.5 l -262.2,-603.5 c -303.7,-46.7 -602.2,-142.1 -883,-287.4 l -567,333.1 c -8.6,5 -18,7.4 -27.4,7.4 -12.6,0 -25.1,-4.4 -35.2,-13 l -599.7,-513 c -17.6,-15 -23.7,-39.5 -15.2,-61 l 241.2,-611.7 c -187.1,-255 -327.5,-535 -420.6,-827.9 l -636.9,-165.5 c -22.3,-5.8 -38.5,-25.2 -40.3,-48.2 l -61.3,-786.9 c -1.8,-22.9 11.2,-44.5 32.4,-53.7 l 603.5,-262.2 c 46.6,-303.7 142,-602.2 287.3,-883.1 l -333,-567 c -11.7,-19.9 -9.5,-45 5.5,-62.5 l 513.1,-599.8 c 10.4,-12.2 25.6,-18.9 41,-18.9 6.7,0 13.4,1.2 19.9,3.8 l 611.7,241.2 c 255,-187.1 535.1,-327.6 827.9,-420.7 l 165.6,-636.8 c 5.7,-22.4 25.1,-38.5 48.1,-40.3 l 339.8,-26.5 c -3188.5,-537.5 -5752.5,-2975.5 -6549.1,-6141.7 -70.6,-280.6 -315.5,-457.1 -576.8,-457.1 -86.8,0 -175.5,19.5 -260.2,61.2 -672.9,330.9 -1426.5,516.4 -2222.67,516.4 -414.99,0 -841.62,-50.5 -1274.12,-156.9 -1244.37,-306.3 -2307.87,-1083.9 -3001.32,-2139.3 -255.02,3139.7 435.67,6434.2 2188.88,9178.5 2599.83,4069.5 7211.53,6418.6 11649.73,6418.6 108.8,0 217,-1.4 325.6,-4.2 977.3,-25.5 4722.5,-182.4 8014,-2936.2 483.4,-404.5 1549.7,-1365.6 2510.7,-2890.4 2081.2,-3302.2 2407.9,-7802.3 1125.4,-11636.9 m -6723.9,10343.5 c 131,-96.1 274.9,-168.2 425.3,-216.1 l 85,-327.1 c 3,-11.5 12.9,-19.8 24.8,-20.7 l 404.2,-31.5 c 0.7,0 1.4,-0.1 2.1,-0.1 11,0 21.1,6.5 25.5,16.7 l 134.7,310 c 156,24 309.3,73 453.6,147.7 l 291.3,-171.1 c 4.3,-2.6 9.2,-3.9 14,-3.9 6.5,0 12.9,2.3 18.1,6.7 l 308,263.6 c 9.1,7.7 12.2,20.2 7.8,31.2 l -123.9,314.3 c 96.1,131 168.3,274.8 216.1,425.3 l 327.2,85 c 11.4,3 19.7,12.9 20.7,24.7 l 31.5,404.2 c 0.9,11.8 -5.8,22.9 -16.7,27.7 l -310,134.6 c -23.9,156.1 -72.9,309.4 -147.6,453.7 l 171.1,291.2 c 6,10.2 4.8,23.1 -2.8,32.1 l -263.6,308.1 c -5.4,6.3 -13.2,9.7 -21.1,9.7 -3.4,0 -6.9,-0.6 -10.2,-1.9 l -314.2,-123.9 c -131,96.1 -274.9,168.3 -425.3,216.1 l -85,327.1 c -3,11.5 -12.9,19.8 -24.8,20.7 l -404.2,31.5 c -0.7,0.1 -1.4,0.1 -2.2,0.1 -10.9,0 -21,-6.5 -25.4,-16.7 l -134.7,-310 c -156,-24 -309.3,-73 -453.6,-147.6 l -291.3,171.1 c -4.3,2.5 -9.2,3.8 -14,3.8 -6.5,0 -12.9,-2.3 -18.1,-6.7 l -308.1,-263.5 c -9,-7.7 -12.1,-20.3 -7.7,-31.3 l 123.9,-314.3 c -96.1,-130.9 -168.3,-274.8 -216.1,-425.3 l -327.2,-85 c -11.4,-3 -19.7,-12.9 -20.7,-24.7 l -31.5,-404.2 c -0.9,-11.8 5.8,-22.9 16.7,-27.6 l 310,-134.7 c 23.9,-156 72.9,-309.4 147.6,-453.6 l -171.1,-291.3 c -6,-10.2 -4.8,-23.1 2.8,-32.1 l 263.6,-308.1 c 5.4,-6.3 13.1,-9.7 21.1,-9.7 3.4,0 6.9,0.6 10.2,1.9 l 314.2,123.9"
             style="fill:url(#linearGradient44);fill-opacity:1;fill-rule:nonzero;stroke:none"
             id="path46" />
        </g>
      </g>
      <g
         id="g48"
         transform="matrix(0.36966488,0,0,0.36966488,5448.2281,19584.029)">
        <g
           id="g50"
           clip-path="url(#clipPath54)">
          <path
             d="m 28816.1,7962.7 h -1099.8 c 1837.1,0 3330.9,1559.1 3252.2,3441 -51.7,1235.6 -766.7,2295 -1789.1,2813.4 160.9,328.8 310.4,677.7 445.4,1047.8 648.4,-143.8 1231.9,-466.5 1698.7,-915.3 665,-639.5 1093.3,-1534.9 1135,-2533.1 88.2,-2107.6 -1584.9,-3853.8 -3642.4,-3853.8 M 8417.34,8150.9 c -2560.82,721.9 -4322.95,3421.5 -3625.9,6396.6 142.1,606.5 388.1,1171 717.75,1672.7 693.45,1055.4 1756.95,1833 3001.32,2139.3 432.5,106.4 859.13,156.9 1274.12,156.9 796.17,0 1549.77,-185.5 2222.67,-516.4 84.7,-41.7 173.4,-61.2 260.2,-61.2 261.3,0 506.2,176.5 576.8,457.1 796.6,3166.2 3360.6,5604.2 6549.1,6141.7 l 447.1,-34.8 c 1.4,-0.2 2.8,-0.2 4.2,-0.2 21.4,0 40.9,12.7 49.6,32.5 l 32.1,73.9 c 262.3,26.1 527.9,39.5 796.9,39.5 2122.5,0 4055.3,-833.4 5504,-2198.2 -594.5,212 -1168.1,488 -1649.1,847.6 -73.1,54.6 -172.9,98.1 -262.7,98.1 -54.7,0 -105.7,-16.1 -144.5,-55.9 -355.5,-363.7 -756.3,-673.7 -1176.9,-933.3 -780.6,293.8 -1623.7,454.1 -2503.6,454.1 -3383.8,0 -6227.1,-2372 -7035,-5582.7 -63,-250.6 -281.6,-408.1 -514.9,-408.1 -77.6,0 -156.8,17.4 -232.4,54.6 -600.7,295.5 -1273.7,461 -1984.5,461 -370.5,0 -751.47,-45 -1137.64,-140.1 C 7946.83,16842.2 6659.19,15522.8 6265.41,13842.1 5748.77,11637 6745.28,9601.3 8406.61,8604.6 l 10.73,-453.7"
             style="fill:url(#linearGradient60);fill-opacity:1;fill-rule:nonzero;stroke:none"
             id="path62" />
        </g>
      </g>
      <g
         id="g64"
         transform="matrix(0.36966488,0,0,0.36966488,5448.2281,19584.029)">
        <g
           id="g66"
           clip-path="url(#clipPath70)">
          <path
             d="m 27716.3,7962.7 h -3467.2 l 23,1589.3 c 48.9,-20.3 101.1,-30.6 153.5,-30.6 58.2,0 116.5,12.7 170.6,38.3 706.4,334.6 3113.1,1652.7 4583.2,4657.4 1022.4,-518.4 1737.4,-1577.8 1789.1,-2813.4 78.7,-1881.9 -1415.1,-3441 -3252.2,-3441 M 8406.61,8604.6 c -1661.33,996.7 -2657.84,3032.4 -2141.2,5237.5 393.78,1680.7 1681.42,3000.1 3320.65,3403.5 386.17,95.1 767.14,140.1 1137.64,140.1 710.8,0 1383.8,-165.5 1984.5,-461 75.6,-37.2 154.8,-54.6 232.4,-54.6 233.3,0 451.9,157.5 514.9,408.1 807.9,3210.7 3651.2,5582.7 7035,5582.7 879.9,0 1723,-160.3 2503.6,-454.1 -1192.1,-735.6 -2543.2,-1066 -3472.9,-1066 -105.8,0 -206.3,4.3 -300.3,12.8 -12,1 -23.9,1.6 -35.8,1.6 -100.9,0 -198.5,-38.3 -272.7,-107.8 -83,-77.8 -128.8,-187.2 -126.2,-300.9 40.8,-1772.3 -6.6,-3872 763.5,-5971.8 l -10557.2,273.2 c -6.12,0.2 -12.24,0.2 -18.35,0.2 -187.17,0 -367.01,-74.1 -499.85,-206.5 -137.18,-136.7 -212.24,-323.7 -207.66,-517.2 l 139.97,-5919.8"
             style="fill:url(#linearGradient76);fill-opacity:1;fill-rule:nonzero;stroke:none"
             id="path78" />
        </g>
      </g>
      <g
         id="g80"
         transform="matrix(0.36966488,0,0,0.36966488,5448.2281,19584.029)">
        <g
           id="g82"
           clip-path="url(#clipPath86)">
          <path
             d="M 23935.7,5427.4 H 8755.82 c -154.39,0 -280.71,126.2 -280.71,280.4 l -57.77,2443.1 -10.73,453.7 -139.97,5919.8 c -4.58,193.5 70.48,380.5 207.66,517.2 132.84,132.4 312.68,206.5 499.85,206.5 6.11,0 12.23,0 18.35,-0.2 l 10557.2,-273.2 c 42.2,-115 86.7,-229.7 133.9,-344.6 l -10632.75,285.2 c -4.43,0.1 -8.87,0.2 -13.29,0.2 -131.36,0 -257.53,-52.1 -350.79,-145.1 -96.38,-96.1 -149.4,-227.7 -145.99,-363.8 l 211.46,-8429.7 c 0,-146.1 119.51,-265.6 265.58,-265.6 H 23569.6 c 146.1,0 265.6,119.5 265.6,265.6 l 57.4,3810.5 c 105.1,-69 212,-137.4 321.5,-205.6 18.7,-11.6 38,-21.5 58,-29.8 l -23,-1589.3 -25.1,-1734.5 -7.6,-520.4 c 0,-154.2 -126.3,-280.4 -280.7,-280.4"
             style="fill:url(#linearGradient92);fill-opacity:1;fill-rule:nonzero;stroke:none"
             id="path94" />
        </g>
      </g>
      <path
         d="m 8683.6239,21793.478 c 0,-54.007 44.1787,-98.185 98.176,-98.185 h 5379.2821 c 54.008,0 98.183,44.178 98.183,98.185 l 44.064,2927.447 c -5.175,176.183 -159.621,239.506 -253.257,235.776 l -5256.0623,140.987 c -50.3113,1.372 -98.9517,-18.038 -134.5874,-53.563 -35.6283,-35.525 -55.2284,-84.174 -53.9676,-134.487 l 78.1692,-3116.16"
         style="fill:#7d97f4;fill-opacity:1;fill-rule:nonzero;stroke:none;stroke-width:0.369664"
         id="path96" />
      <path
         d="m 14201.153,23184.23 h -0.146 c -8.022,0.09 -14.38,6.651 -14.232,14.601 l 3.475,237.399 c 0.11,7.872 6.543,14.194 14.38,14.194 h 0.11 c 8.022,-0.137 14.38,-6.651 14.269,-14.601 l -3.475,-237.435 c -0.11,-7.872 -6.543,-14.158 -14.38,-14.158"
         style="fill:#ffffff;fill-opacity:1;fill-rule:nonzero;stroke:none;stroke-width:0.369664"
         id="path98" />
      <path
         d="m 14209.693,23766.008 h -0.22 c -7.948,0.138 -14.306,6.656 -14.158,14.602 l 13.345,909.302 c -0.261,54.007 -16.635,97.148 -48.759,127.868 -59.886,57.408 -154.964,54.487 -158.993,54.267 l -1679.942,45.061 c -7.948,0.228 -14.232,6.839 -14.01,14.752 0.219,7.945 6.321,14.711 14.786,14.011 l 1678.945,-45.065 c 10.461,0.626 111.712,2.364 179.139,-62.254 37.928,-36.338 57.298,-86.39 57.594,-148.79 l -13.345,-909.596 c -0.11,-7.835 -6.543,-14.158 -14.38,-14.158"
         style="fill:#ffffff;fill-opacity:1;fill-rule:nonzero;stroke:none;stroke-width:0.369664"
         id="path100" />
      <g
         id="g102"
         transform="matrix(0.36966488,0,0,0.36966488,5448.2281,19584.029)">
        <g
           id="g104"
           clip-path="url(#clipPath108)">
          <path
             d="M 7300.18,4703.2 H 25083.6 c 31.1,0 56.5,25.5 56.5,56.6 v 653.4 c 0,31.1 -25.4,56.5 -56.5,56.5 H 7300.18 c -31.09,0 -56.54,-25.4 -56.54,-56.5 v -653.4 c 0,-31.1 25.45,-56.6 56.54,-56.6"
             style="fill:url(#linearGradient114);fill-opacity:1;fill-rule:nonzero;stroke:none"
             id="path116" />
        </g>
      </g>
      <path
         d="M 11017.415,21838.095 H 8946.2488 c -76.3689,0 -138.2729,61.92 -138.2729,138.29 v 2703.511 c 0,78.442 65.1753,141.175 143.5593,138.181 l 2071.1658,-79.296 c 74.266,-2.811 132.968,-63.84 132.968,-138.144 v -2624.252 c 0,-76.37 -61.881,-138.29 -138.254,-138.29"
         style="fill:#91b3fa;fill-opacity:1;fill-rule:nonzero;stroke:none;stroke-width:0.369664"
         id="path118" />
      <path
         d="M 10605.46,23575.188 H 9233.5229 c -10.8681,0 -19.7033,8.836 -19.7033,19.703 v 142.912 c 0,10.866 8.8352,19.703 19.7033,19.703 H 10605.46 c 10.868,0 19.703,-8.837 19.703,-19.703 v -142.912 c 0,-10.867 -8.835,-19.703 -19.703,-19.703"
         style="fill:#c9dafd;fill-opacity:1;fill-rule:nonzero;stroke:none;stroke-width:0.369664"
         id="path120" />
      <path
         d="M 10608.232,23284.002 H 9236.295 c -10.8681,0 -19.7029,8.836 -19.7029,19.739 v 142.875 c 0,10.908 8.8348,19.744 19.7029,19.744 h 1371.937 c 10.869,0 19.704,-8.836 19.704,-19.744 v -142.875 c 0,-10.903 -8.835,-19.739 -19.704,-19.739"
         style="fill:#c9dafd;fill-opacity:1;fill-rule:nonzero;stroke:none;stroke-width:0.369664"
         id="path122" />
      <path
         d="M 10616.513,22986.753 H 9244.5757 c -10.8681,0 -19.7029,8.837 -19.7029,19.703 v 142.912 c 0,10.871 8.8348,19.708 19.7029,19.708 h 1371.9373 c 10.868,0 19.703,-8.837 19.703,-19.708 v -142.912 c 0,-10.866 -8.835,-19.703 -19.703,-19.703"
         style="fill:#c9dafd;fill-opacity:1;fill-rule:nonzero;stroke:none;stroke-width:0.369664"
         id="path124" />
      <path
         d="M 10619.286,22695.608 H 9247.3483 c -10.8682,0 -19.7034,8.796 -19.7034,19.703 v 142.912 c 0,10.866 8.8352,19.703 19.7034,19.703 h 1371.9377 c 10.868,0 19.703,-8.837 19.703,-19.703 v -142.912 c 0,-10.907 -8.835,-19.703 -19.703,-19.703"
         style="fill:#c9dafd;fill-opacity:1;fill-rule:nonzero;stroke:none;stroke-width:0.369664"
         id="path126" />
      <path
         d="m 13614.2,23575.412 h -1989.685 c -10.868,0 -19.703,8.795 -19.703,19.698 v 142.912 c 0,10.871 8.835,19.708 19.703,19.708 h 1952.127 c 18.816,-18.044 37.853,-36.005 57.261,-53.971 v -108.649 c 0,-10.903 -8.835,-19.698 -19.703,-19.698"
         style="fill:#bfccfa;fill-opacity:1;fill-rule:nonzero;stroke:none;stroke-width:0.369664"
         id="path128" />
      <path
         d="M 13620.447,23284.002 H 11630.8 c -10.905,0 -19.704,8.836 -19.704,19.739 v 142.875 c 0,10.908 8.799,19.744 19.704,19.744 h 1989.647 c 10.905,0 19.74,-8.836 19.74,-19.744 v -142.875 c 0,-10.903 -8.835,-19.739 -19.74,-19.739"
         style="fill:#bfccfa;fill-opacity:1;fill-rule:nonzero;stroke:none;stroke-width:0.369664"
         id="path130" />
      <path
         d="M 12793.692,22986.753 H 11630.8 c -10.905,0 -19.704,8.837 -19.704,19.703 v 142.912 c 0,10.871 8.799,19.708 19.704,19.708 h 1162.892 c 10.904,0 19.74,-8.837 19.74,-19.708 v -142.912 c 0,-10.866 -8.836,-19.703 -19.74,-19.703"
         style="fill:#bfccfa;fill-opacity:1;fill-rule:nonzero;stroke:none;stroke-width:0.369664"
         id="path132" />
      <path
         d="m 12681.942,24437.245 h -30.904 c -15.341,0 -27.799,12.457 -27.799,27.799 v 105.65 c 0,37.82 -30.645,68.462 -68.462,68.462 h -191.487 c -37.816,0 -68.498,-30.642 -68.498,-68.462 v -105.65 c 0,-15.342 -12.421,-27.799 -27.762,-27.799 h -30.941 c -15.341,0 -27.762,12.457 -27.762,27.799 v 105.65 c 0,85.577 69.349,154.926 154.963,154.926 h 191.487 c 85.578,0 154.964,-69.349 154.964,-154.926 v -105.65 c 0,-15.342 -12.421,-27.799 -27.799,-27.799"
         style="fill:#bfccfa;fill-opacity:1;fill-rule:nonzero;stroke:none;stroke-width:0.369664"
         id="path134" />
      <path
         d="m 12720.276,23895.389 h -522.484 c -32.013,0 -57.964,25.952 -57.964,57.966 v 400.973 c 0,32.014 25.951,58.003 57.964,58.003 h 522.484 c 32.013,0 57.963,-25.989 57.963,-58.003 v -400.973 c 0,-32.014 -25.95,-57.966 -57.963,-57.966 m -261.242,414.066 c -2.033,0 -4.103,-0.09 -6.173,-0.228 -48.575,-2.995 -87.981,-42.771 -90.532,-91.383 -1.996,-37.522 17.412,-70.679 47.096,-88.421 l -25.138,-104.653 c -3.253,-13.491 6.987,-26.506 20.887,-26.506 h 107.72 c 13.899,0 24.139,13.015 20.886,26.506 l -25.137,104.653 c 28.279,16.892 47.243,47.836 47.243,83.173 0,53.49 -43.362,96.855 -96.852,96.855"
         style="fill:#bfccfa;fill-opacity:1;fill-rule:nonzero;stroke:none;stroke-width:0.369664"
         id="path136" />
      <path
         d="m 14202.817,29118.388 c -2.033,0 -4.14,0.48 -6.025,1.55 -6.026,3.364 -8.17,10.907 -4.843,16.932 8.022,14.419 15.785,28.91 23.326,43.548 3.142,6.098 10.609,8.466 16.745,5.321 6.1,-3.141 8.503,-10.647 5.36,-16.782 -7.651,-14.825 -15.562,-29.536 -23.658,-44.174 -2.292,-4.105 -6.543,-6.395 -10.905,-6.395"
         style="fill:#91b3fa;fill-opacity:1;fill-rule:nonzero;stroke:none;stroke-width:0.369664"
         id="path138" />
      <path
         d="m 11203.43,29299.636 c -4.917,0 -9.574,2.953 -11.534,7.794 -12.309,30.318 -23.843,61.331 -34.304,92.124 -2.181,6.505 1.293,13.568 7.836,15.785 6.432,2.18 13.53,-1.294 15.748,-7.799 10.277,-30.35 21.663,-60.887 33.787,-90.752 2.588,-6.395 -0.48,-13.646 -6.838,-16.229 -1.553,-0.63 -3.142,-0.923 -4.695,-0.923 z m 114.411,-228.974 c -4.214,0 -8.354,2.181 -10.683,6.062 -16.857,28.096 -33.048,56.928 -48.131,85.765 -3.142,6.061 -0.813,13.604 5.287,16.781 6.062,3.182 13.603,0.814 16.782,-5.284 14.861,-28.357 30.794,-56.782 47.392,-84.471 3.548,-5.874 1.626,-13.527 -4.251,-17.079 -1.997,-1.179 -4.215,-1.774 -6.396,-1.774 z m 2743.801,-165.76 c -2.662,0 -5.36,0.855 -7.615,2.629 -5.434,4.215 -6.395,12.05 -2.181,17.486 19.814,25.467 39.073,51.753 57.224,78.107 3.919,5.696 11.681,7.099 17.301,3.218 5.655,-3.881 7.097,-11.648 3.216,-17.303 -18.447,-26.797 -37.965,-53.49 -58.112,-79.328 -2.44,-3.145 -6.099,-4.809 -9.833,-4.809 z m -2595.528,-42.88 c -3.549,0 -7.098,1.555 -9.574,4.512 -20.85,25.024 -41.255,51.049 -60.699,77.335 -4.067,5.509 -2.884,13.308 2.624,17.408 5.582,4.069 13.345,2.885 17.411,-2.624 19.149,-25.874 39.259,-51.529 59.812,-76.224 4.399,-5.248 3.66,-13.124 -1.626,-17.522 -2.292,-1.925 -5.139,-2.885 -7.948,-2.885 z m 2423.301,-146.386 c -3.327,0 -6.617,1.33 -9.057,3.918 -4.732,4.992 -4.509,12.864 0.518,17.595 23.4,22.108 46.467,45.138 68.499,68.466 4.731,4.988 12.605,5.207 17.596,0.517 4.99,-4.731 5.212,-12.608 0.517,-17.595 -22.401,-23.699 -45.764,-47.063 -69.533,-69.5 -2.404,-2.254 -5.508,-3.401 -8.54,-3.401 z m -2245.086,-37.335 c -2.92,0 -5.878,1.033 -8.243,3.104 -24.361,21.554 -48.463,44.215 -71.678,67.282 -4.88,4.842 -4.88,12.714 -0.05,17.591 4.842,4.883 12.716,4.919 17.596,0 22.845,-22.697 46.615,-45.024 70.643,-66.244 5.138,-4.585 5.619,-12.421 1.072,-17.596 -2.477,-2.77 -5.915,-4.178 -9.353,-4.178 z m 2045.984,-123.726 c -3.955,0 -7.836,1.884 -10.276,5.358 -3.881,5.655 -2.477,13.417 3.179,17.34 26.468,18.262 52.788,37.558 78.147,57.334 5.398,4.211 13.234,3.251 17.448,-2.185 4.252,-5.394 3.29,-13.229 -2.144,-17.444 -25.765,-20.073 -52.418,-39.667 -79.293,-58.222 -2.181,-1.481 -4.657,-2.181 -7.061,-2.181 z m -1841.929,-30.61 c -2.291,0 -4.657,0.631 -6.728,1.998 -27.466,17.595 -54.747,36.265 -81.141,55.447 -5.545,4.068 -6.765,11.831 -2.736,17.412 4.067,5.545 11.867,6.766 17.412,2.739 25.95,-18.931 52.825,-37.303 79.921,-54.679 5.767,-3.694 7.467,-11.383 3.734,-17.189 -2.366,-3.694 -6.358,-5.728 -10.462,-5.728 z m 1620.611,-98.034 c -4.621,0 -9.093,2.587 -11.237,7.058 -2.995,6.176 -0.371,13.605 5.84,16.599 28.945,13.938 57.853,28.946 85.984,44.617 6.063,3.328 13.567,1.184 16.931,-4.841 3.364,-5.989 1.183,-13.563 -4.806,-16.928 -28.575,-15.899 -57.927,-31.127 -87.351,-45.285 -1.738,-0.85 -3.549,-1.22 -5.361,-1.22 z m -1395.189,-22.958 c -1.701,0 -3.401,0.32 -5.028,1.033 -29.905,13.203 -59.774,27.433 -88.719,42.295 -6.099,3.141 -8.539,10.647 -5.397,16.782 3.142,6.062 10.646,8.503 16.782,5.358 28.502,-14.638 57.927,-28.65 87.389,-41.623 6.285,-2.771 9.131,-10.131 6.359,-16.416 -2.033,-4.654 -6.617,-7.429 -11.386,-7.429 z m 1156.682,-69.979 c -5.361,0 -10.277,3.442 -11.903,8.836 -1.997,6.583 1.737,13.532 8.28,15.529 30.83,9.317 61.734,19.699 91.861,30.794 6.433,2.363 13.604,-0.928 15.97,-7.397 2.366,-6.432 -0.924,-13.563 -7.356,-15.968 -30.572,-11.278 -61.956,-21.774 -93.23,-31.273 -1.22,-0.366 -2.44,-0.521 -3.622,-0.521 z m -915.217,-14.894 c -1.072,0 -2.144,0.137 -3.216,0.457 -31.569,8.393 -63.25,17.856 -94.19,28.133 -6.544,2.144 -10.092,9.202 -7.911,15.707 2.144,6.51 9.167,10.057 15.71,7.913 30.535,-10.093 61.734,-19.447 92.786,-27.725 6.654,-1.774 10.609,-8.613 8.835,-15.228 -1.516,-5.586 -6.543,-9.243 -12.014,-9.243 z m 665.249,-40.219 c -6.1,0 -11.423,4.47 -12.31,10.683 -0.961,6.839 3.771,13.125 10.573,14.085 31.865,4.47 63.989,9.979 95.484,16.301 6.691,1.367 13.308,-2.994 14.676,-9.723 1.331,-6.729 -3.031,-13.308 -9.759,-14.674 -31.976,-6.432 -64.581,-12.019 -96.927,-16.563 -0.591,-0.09 -1.182,-0.137 -1.737,-0.137 z m -413.655,-6.693 c -0.481,0 -0.924,0 -1.368,0.09 -32.493,3.552 -65.282,8.06 -97.37,13.418 -6.801,1.147 -11.348,7.579 -10.239,14.345 1.146,6.765 7.578,11.387 14.343,10.203 31.643,-5.284 63.915,-9.76 95.928,-13.198 6.839,-0.74 11.792,-6.875 11.053,-13.714 -0.702,-6.395 -6.099,-11.127 -12.347,-11.127 z m 180.101,-9.687 c -7.357,0 -14.713,0 -22.032,0.137 -6.876,0.09 -12.384,5.728 -12.31,12.604 0.11,6.802 5.656,12.274 12.457,12.274 h 0.183 c 32.198,-0.457 64.692,0.09 96.815,1.554 6.433,0.457 12.717,-4.992 13.013,-11.867 0.297,-6.876 -5.028,-12.681 -11.866,-13.015 -25.286,-1.143 -50.94,-1.701 -76.262,-1.701"
         style="fill:#91b3fa;fill-opacity:1;fill-rule:nonzero;stroke:none;stroke-width:0.369664"
         id="path140" />
      <path
         d="m 11125.578,29544.203 c -5.655,0 -10.757,3.844 -12.125,9.577 -3.807,16.302 -7.393,32.603 -10.72,48.978 -1.367,6.729 2.958,13.308 9.686,14.675 6.727,1.371 13.307,-2.954 14.675,-9.719 3.29,-16.119 6.839,-32.201 10.61,-48.243 1.552,-6.692 -2.588,-13.385 -9.279,-14.971 -0.961,-0.183 -1.922,-0.32 -2.847,-0.32"
         style="fill:#91b3fa;fill-opacity:1;fill-rule:nonzero;stroke:none;stroke-width:0.369664"
         id="path142" />
      <path
         d="m 11336.583,30813.3 c -2.292,0 -4.584,0.626 -6.654,1.925 -5.804,3.657 -7.541,11.346 -3.881,17.188 8.909,14.085 18.003,28.092 27.355,41.993 3.808,5.692 11.57,7.246 17.263,3.365 5.693,-3.808 7.209,-11.534 3.401,-17.266 -9.241,-13.673 -18.187,-27.465 -26.948,-41.363 -2.366,-3.771 -6.432,-5.842 -10.536,-5.842"
         style="fill:#91b3fa;fill-opacity:1;fill-rule:nonzero;stroke:none;stroke-width:0.369664"
         id="path144" />
      <path
         d="m 12629.08,31587.709 c -6.469,0 -11.941,5.029 -12.384,11.575 -0.481,6.876 4.657,12.786 11.533,13.266 34.158,2.405 68.906,3.772 103.285,4.069 h 0.11 c 6.838,0 12.384,-5.509 12.42,-12.347 0.07,-6.876 -5.471,-12.494 -12.31,-12.531 -33.861,-0.274 -68.092,-1.627 -101.768,-3.995 z m 370.921,-15.264 c -0.591,0 -1.256,0 -1.885,0.137 -33.418,5.139 -67.427,9.28 -101.103,12.348 -6.839,0.59 -11.867,6.651 -11.275,13.527 0.666,6.843 6.543,11.904 13.53,11.241 34.194,-3.109 68.72,-7.319 102.619,-12.53 6.801,-1.038 11.46,-7.397 10.424,-14.163 -0.961,-6.171 -6.247,-10.569 -12.31,-10.569 z m -636.969,-25.101 c -5.619,0 -10.757,3.844 -12.088,9.577 -1.59,6.688 2.551,13.38 9.241,14.971 33.492,7.909 67.575,14.821 101.326,20.585 6.912,1.111 13.196,-3.396 14.343,-10.162 1.183,-6.766 -3.365,-13.198 -10.129,-14.345 -33.27,-5.692 -66.836,-12.53 -99.81,-20.293 -0.961,-0.228 -1.922,-0.32 -2.883,-0.32 z m 898.729,-36.97 c -1.256,0 -2.551,0.183 -3.844,0.595 -32.087,10.427 -65.024,19.963 -97.74,28.388 -6.654,1.737 -10.683,8.54 -8.983,15.159 1.738,6.693 8.613,10.684 15.194,8.983 33.232,-8.576 66.613,-18.263 99.218,-28.837 6.542,-2.144 10.128,-9.165 8.021,-15.712 -1.737,-5.248 -6.616,-8.576 -11.866,-8.576 z m -1154.759,-45.801 c -4.88,0 -9.5,2.885 -11.497,7.653 -2.624,6.359 0.37,13.646 6.728,16.27 31.607,13.156 64.137,25.504 96.631,36.704 6.543,2.253 13.603,-1.18 15.859,-7.69 2.217,-6.505 -1.221,-13.604 -7.727,-15.821 -32.049,-11.049 -64.063,-23.214 -95.226,-36.188 -1.552,-0.631 -3.179,-0.928 -4.768,-0.928 z m 1403.063,-57.7 c -1.922,0 -3.844,0.457 -5.693,1.403 -30.016,15.452 -60.92,30.204 -91.862,43.808 -6.284,2.77 -9.167,10.089 -6.395,16.412 2.773,6.281 10.092,9.165 16.413,6.354 31.422,-13.788 62.806,-28.754 93.267,-44.466 6.099,-3.146 8.502,-10.647 5.36,-16.75 -2.218,-4.288 -6.58,-6.761 -11.09,-6.761 z m -1642.347,-65.541 c -4.141,0 -8.207,2.108 -10.573,5.874 -3.622,5.843 -1.848,13.495 3.993,17.152 29.13,18.112 59.22,35.603 89.422,51.9 6.099,3.291 13.64,1.001 16.894,-5.024 3.253,-6.062 0.997,-13.605 -5.028,-16.86 -29.795,-16.077 -59.442,-33.302 -88.128,-51.158 -2.033,-1.258 -4.325,-1.884 -6.58,-1.884 z m 1870.578,-76.782 c -2.551,0 -5.175,0.814 -7.393,2.442 -27.134,20.182 -55.228,39.734 -83.544,58.148 -5.767,3.73 -7.394,11.456 -3.623,17.225 3.734,5.765 11.423,7.392 17.226,3.621 28.723,-18.702 57.261,-38.556 84.802,-58.994 5.507,-4.106 6.653,-11.904 2.55,-17.418 -2.44,-3.286 -6.21,-5.024 -10.018,-5.024 z m -2086.832,-83.469 c -3.438,0 -6.913,1.44 -9.353,4.251 -4.51,5.175 -3.992,13.047 1.183,17.559 25.877,22.619 52.789,44.69 79.885,65.65 5.508,4.179 13.271,3.141 17.485,-2.253 4.177,-5.436 3.179,-13.271 -2.255,-17.486 -26.726,-20.59 -53.232,-42.364 -78.739,-64.654 -2.366,-2.071 -5.286,-3.067 -8.206,-3.067 z m 2289.076,-93.861 c -3.253,0 -6.506,1.257 -8.946,3.772 -23.437,24.178 -48.02,48.018 -73.046,70.866 -5.101,4.622 -5.471,12.494 -0.813,17.559 4.621,5.101 12.495,5.472 17.559,0.813 25.433,-23.177 50.385,-47.355 74.192,-71.899 4.768,-4.955 4.657,-12.827 -0.298,-17.595 -2.402,-2.368 -5.507,-3.516 -8.65,-3.516 z m -2476.977,-98.738 c -2.772,0 -5.619,0.928 -7.911,2.848 -5.286,4.402 -6.025,12.238 -1.626,17.522 21.81,26.322 44.84,52.384 68.388,77.481 4.694,5.029 12.569,5.253 17.596,0.553 5.028,-4.726 5.286,-12.603 0.554,-17.59 -23.215,-24.732 -45.875,-50.423 -67.389,-76.339 -2.477,-2.957 -6.026,-4.475 -9.612,-4.475 z m 2648.501,-108.645 c -3.955,0 -7.799,1.852 -10.24,5.326 -19.333,27.653 -39.849,55.118 -60.92,81.586 -4.288,5.399 -3.401,13.193 1.996,17.481 5.397,4.288 13.197,3.406 17.485,-1.956 21.367,-26.912 42.216,-54.784 61.845,-82.844 3.955,-5.618 2.588,-13.38 -3.068,-17.334 -2.144,-1.518 -4.658,-2.259 -7.098,-2.259 z m 135.889,-232.219 c -4.621,0 -9.094,2.587 -11.238,7.022 -14.675,30.537 -30.46,60.96 -46.947,90.381 -3.327,5.989 -1.183,13.568 4.806,16.933 5.988,3.328 13.603,1.22 16.93,-4.768 16.709,-29.87 32.752,-60.736 47.65,-91.753 2.994,-6.172 0.37,-13.637 -5.804,-16.599 -1.737,-0.846 -3.586,-1.216 -5.397,-1.216 z m 96.446,-251.228 c -5.397,0 -10.351,3.516 -11.941,8.947 -9.5,32.457 -20.183,65.024 -31.68,96.813 -2.329,6.432 1.035,13.568 7.504,15.936 6.432,2.327 13.604,-1.037 15.933,-7.506 11.682,-32.233 22.476,-65.28 32.124,-98.222 1.959,-6.614 -1.849,-13.526 -8.429,-15.446 -1.182,-0.32 -2.365,-0.522 -3.511,-0.522"
         style="fill:#91b3fa;fill-opacity:1;fill-rule:nonzero;stroke:none;stroke-width:0.369664"
         id="path146" />
      <path
         d="m 14391.716,30184.5 c -6.026,0 -11.312,4.398 -12.273,10.537 -2.551,16.265 -5.323,32.489 -8.355,48.681 -1.256,6.766 3.18,13.271 9.945,14.528 6.727,1.148 13.27,-3.213 14.528,-9.979 3.067,-16.411 5.877,-32.901 8.465,-49.385 1.072,-6.802 -3.586,-13.161 -10.388,-14.236 -0.628,-0.09 -1.294,-0.137 -1.922,-0.137"
         style="fill:#91b3fa;fill-opacity:1;fill-rule:nonzero;stroke:none;stroke-width:0.369664"
         id="path148" />
      <path
         d="m 14025.156,29976.267 c 0.666,8.503 -4.14,16.489 -11.977,19.89 l -223.093,96.924 c -17.226,112.269 -52.492,222.615 -106.242,326.455 l 123.136,209.6 c 4.325,7.35 3.475,16.63 -2.07,23.104 l -189.638,221.723 c -5.545,6.469 -14.602,8.722 -22.513,5.582 l -226.161,-89.161 c -94.227,69.161 -197.771,121.101 -306.045,155.515 l -61.18,235.401 c -2.144,8.284 -9.279,14.236 -17.781,14.898 l -290.889,22.661 c -8.502,0.667 -16.487,-4.142 -19.888,-11.941 l -96.926,-223.09 c -112.268,-17.266 -222.612,-52.53 -326.414,-106.244 l -209.6,123.136 c -7.357,4.288 -16.635,3.474 -23.141,-2.071 l -221.688,-189.637 c -6.506,-5.545 -8.761,-14.601 -5.619,-22.551 l 89.163,-226.121 c -69.165,-94.267 -121.066,-197.774 -155.481,-306.048 l -235.44,-61.179 c -8.243,-2.144 -14.232,-9.317 -14.898,-17.82 l -22.66,-290.884 c -0.665,-8.467 4.141,-16.453 11.977,-19.854 l 223.093,-96.924 c 17.227,-112.269 52.492,-222.614 106.205,-326.454 l -123.099,-209.6 c -4.325,-7.356 -3.511,-16.636 2.034,-23.104 l 189.675,-221.724 c 5.508,-6.468 14.564,-8.727 22.512,-5.582 l 226.124,89.162 c 94.265,-69.162 197.808,-121.102 306.046,-155.516 l 61.216,-235.401 c 2.107,-8.283 9.279,-14.235 17.781,-14.898 l 290.889,-22.661 c 8.503,-0.667 16.488,4.137 19.888,11.936 l 96.89,223.095 c 112.304,17.225 222.649,52.494 326.451,106.245 l 209.6,-123.136 c 7.356,-4.288 16.635,-3.479 23.104,2.07 l 221.725,189.637 c 6.469,5.545 8.724,14.601 5.619,22.51 l -89.163,226.162 c 69.127,94.226 121.065,197.806 155.481,306.048 l 235.439,61.179 c 8.244,2.144 14.232,9.317 14.898,17.815 l 22.66,290.853"
         style="fill:#91b3fa;fill-opacity:1;fill-rule:nonzero;stroke:none;stroke-width:0.369664"
         id="path150" />
      <path
         d="m 12736.024,29652.55 c -56.965,0 -112.415,17.523 -159.844,51.091 -125.02,88.461 -154.741,262.125 -66.28,387.149 42.881,60.554 106.759,100.81 179.879,113.303 15.821,2.734 31.68,4.064 47.391,4.064 56.965,0 112.452,-17.517 159.88,-51.085 60.588,-42.88 100.807,-106.72 113.339,-179.84 12.495,-73.162 -4.214,-146.762 -47.058,-207.31 -42.844,-60.553 -106.723,-100.809 -179.842,-113.34 -15.822,-2.697 -31.717,-4.032 -47.465,-4.032 m 1.109,518.272 c -13.641,0 -27.356,-1.184 -41.07,-3.51 -63.286,-10.835 -118.588,-45.655 -155.666,-98.071 -76.595,-108.201 -50.866,-258.547 57.335,-335.104 41.07,-29.093 89.089,-44.247 138.403,-44.247 13.603,0 27.355,1.179 41.069,3.511 63.287,10.829 118.552,45.654 155.629,98.07 37.115,52.421 51.568,116.151 40.774,179.438 -10.868,63.287 -45.69,118.588 -98.109,155.667 -41.069,29.056 -89.052,44.246 -138.365,44.246"
         style="fill:#dee8fd;fill-opacity:1;fill-rule:nonzero;stroke:none;stroke-width:0.369664"
         id="path152" />
      <path
         d="m 12731.587,29207.586 c -19.037,0 -38.149,0.74 -57.297,2.258 -192.448,14.971 -367.558,104.018 -493.023,250.702 -113.006,132.082 -173.594,296.658 -173.594,468.589 0,19.041 0.739,38.149 2.255,57.335 14.971,192.448 104.024,367.52 250.744,493.024 132.044,112.97 296.619,173.555 468.587,173.555 19.038,0 38.149,-0.736 57.298,-2.217 192.484,-15.008 367.558,-104.06 493.022,-250.743 33.529,-39.145 62.843,-81.806 87.13,-126.793 l -32.826,-17.747 c -23.067,42.661 -50.866,83.136 -82.658,120.288 -118.994,139.104 -285.048,223.539 -467.552,237.769 -18.076,1.404 -36.116,2.108 -54.044,2.108 -163.171,0 -319.354,-57.372 -444.708,-164.576 -139.104,-119.031 -223.573,-285.084 -237.805,-467.589 -1.405,-18.148 -2.107,-36.297 -2.107,-54.34 0,-163.059 57.483,-319.168 164.612,-444.412 118.995,-139.104 285.049,-223.534 467.552,-237.764 18.188,-1.408 36.338,-2.108 54.414,-2.108 163.134,0 319.095,57.445 444.338,164.572 94.412,80.772 165.055,185.421 204.277,302.569 l 35.414,-11.827 c -41.366,-123.579 -115.853,-233.924 -215.441,-319.094 -132.044,-112.97 -296.619,-173.559 -468.588,-173.559"
         style="fill:#dee8fd;fill-opacity:1;fill-rule:nonzero;stroke:none;stroke-width:0.369664"
         id="path154" />
      <path
         d="m 15606.545,28709.871 c -2.144,0 -4.324,0.554 -6.321,1.738 -5.914,3.474 -7.874,11.126 -4.362,17.037 8.355,14.126 16.376,28.54 23.77,42.885 3.142,6.098 10.646,8.503 16.783,5.358 6.099,-3.141 8.465,-10.684 5.323,-16.782 -7.616,-14.748 -15.859,-29.609 -24.472,-44.137 -2.292,-3.955 -6.469,-6.099 -10.721,-6.099"
         style="fill:#91b3fa;fill-opacity:1;fill-rule:nonzero;stroke:none;stroke-width:0.369664"
         id="path156" />
      <path
         d="m 14149.622,28685.474 c -4.103,0 -8.132,1.997 -10.498,5.728 -18.262,28.466 -34.971,58.331 -49.757,88.795 -2.995,6.172 -0.444,13.6 5.767,16.599 6.21,2.99 13.603,0.411 16.598,-5.769 14.379,-29.536 30.645,-58.556 48.352,-86.204 3.696,-5.805 2.033,-13.494 -3.771,-17.193 -2.07,-1.33 -4.399,-1.956 -6.691,-1.956 z m 1289.946,-178.03 c -3.401,0 -6.839,1.403 -9.279,4.137 -4.583,5.138 -4.14,13.015 0.998,17.559 l 7.32,6.619 c 21.884,19.959 42.918,41.253 62.547,63.319 4.584,5.18 12.421,5.623 17.559,1.038 5.175,-4.581 5.619,-12.421 1.035,-17.559 -20.183,-22.697 -41.846,-44.654 -64.395,-65.211 l -7.504,-6.761 c -2.367,-2.108 -5.324,-3.141 -8.281,-3.141 z m -1116.462,-18.779 c -2.809,0 -5.619,0.96 -7.948,2.88 -25.876,21.59 -50.828,45.028 -74.155,69.645 -4.731,4.992 -4.509,12.864 0.444,17.596 5.027,4.695 12.901,4.512 17.596,-0.48 22.697,-23.918 46.91,-46.652 72.047,-67.648 5.287,-4.398 5.989,-12.238 1.59,-17.523 -2.477,-2.957 -5.989,-4.47 -9.574,-4.47 z m 896.253,-123.877 c -4.769,0 -9.316,2.734 -11.386,7.355 -2.81,6.286 0,13.642 6.284,16.453 29.98,13.417 59.516,28.722 87.721,45.577 5.878,3.511 13.531,1.591 17.042,-4.324 3.549,-5.879 1.627,-13.532 -4.288,-17.043 -29.019,-17.335 -59.442,-33.12 -90.309,-46.948 -1.664,-0.736 -3.401,-1.07 -5.064,-1.07 z m -671.386,-11.163 c -1.59,0 -3.179,0.274 -4.694,0.886 -31.311,12.718 -62.178,27.466 -91.825,43.808 -6.026,3.287 -8.244,10.867 -4.917,16.892 3.327,6.025 10.868,8.206 16.894,4.878 28.834,-15.859 58.851,-30.163 89.237,-42.51 6.321,-2.588 9.426,-9.833 6.839,-16.229 -1.997,-4.804 -6.655,-7.725 -11.534,-7.725 z m 418.128,-57.669 c -6.247,0 -11.644,4.731 -12.347,11.09 -0.776,6.803 4.141,12.974 10.979,13.751 32.753,3.657 65.542,9.28 97.444,16.672 6.617,1.628 13.345,-2.587 14.934,-9.28 1.553,-6.688 -2.624,-13.38 -9.315,-14.935 -32.826,-7.652 -66.577,-13.417 -100.29,-17.225 -0.481,0 -0.924,-0.09 -1.405,-0.09 z m -162.763,-2.624 h -0.998 c -33.751,2.661 -67.649,7.314 -100.771,13.861 -6.765,1.33 -11.127,7.908 -9.796,14.637 1.33,6.725 7.911,11.127 14.602,9.797 32.197,-6.359 65.134,-10.903 97.924,-13.495 6.838,-0.517 11.977,-6.542 11.423,-13.381 -0.481,-6.505 -5.952,-11.46 -12.384,-11.46"
         style="fill:#91b3fa;fill-opacity:1;fill-rule:nonzero;stroke:none;stroke-width:0.369664"
         id="path158" />
      <path
         d="m 14043.75,28926.086 c -5.508,0 -10.535,3.699 -12.014,9.28 -4.288,16.156 -8.169,32.713 -11.497,49.129 -1.367,6.725 2.958,13.308 9.723,14.675 6.728,1.367 13.308,-2.958 14.639,-9.724 3.253,-15.931 7.023,-31.977 11.2,-47.721 1.775,-6.619 -2.218,-13.458 -8.872,-15.195 -1.072,-0.275 -2.107,-0.457 -3.179,-0.457"
         style="fill:#91b3fa;fill-opacity:1;fill-rule:nonzero;stroke:none;stroke-width:0.369664"
         id="path160" />
      <path
         d="m 14146.258,29601.501 c -2.254,0 -4.547,0.594 -6.616,1.925 -5.804,3.657 -7.542,11.309 -3.882,17.152 8.909,14.194 18.409,28.279 28.132,41.92 3.992,5.581 11.792,6.875 17.373,2.88 5.582,-3.991 6.876,-11.753 2.884,-17.335 -9.463,-13.234 -18.668,-26.949 -27.355,-40.741 -2.366,-3.767 -6.395,-5.801 -10.536,-5.801"
         style="fill:#91b3fa;fill-opacity:1;fill-rule:nonzero;stroke:none;stroke-width:0.369664"
         id="path162" />
      <path
         d="m 14736.058,29990.832 c -6.025,0 -11.311,4.361 -12.272,10.5 -1.072,6.802 3.549,13.161 10.351,14.231 32.752,5.175 66.28,8.539 99.587,9.943 6.876,0.137 12.68,-5.024 12.975,-11.904 0.298,-6.876 -5.064,-12.677 -11.903,-12.974 -32.382,-1.367 -64.95,-4.622 -96.778,-9.65 -0.665,-0.09 -1.331,-0.137 -1.96,-0.137 z m 354.842,-18.222 c -1.035,0 -2.144,0.137 -3.216,0.457 -31.2,8.279 -63.25,14.821 -95.226,19.479 -6.801,1.001 -11.533,7.323 -10.535,14.121 0.998,6.802 7.245,11.68 14.084,10.501 32.937,-4.768 65.948,-11.534 98.072,-20.074 6.654,-1.737 10.609,-8.576 8.835,-15.195 -1.479,-5.582 -6.506,-9.275 -12.014,-9.275 z m -600.742,-60.22 c -4.584,0 -8.983,2.515 -11.164,6.876 -3.069,6.171 -0.555,13.641 5.581,16.708 29.759,14.784 60.736,27.987 92.121,39.296 6.506,2.291 13.567,-1.037 15.932,-7.506 2.33,-6.468 -1.034,-13.6 -7.504,-15.931 -30.497,-10.976 -60.587,-23.808 -89.459,-38.149 -1.774,-0.887 -3.659,-1.294 -5.507,-1.294 z m 837.254,-42.994 c -2.292,0 -4.584,0.631 -6.654,1.925 -27.319,17.261 -55.931,33.083 -85.023,47.058 -6.173,2.994 -8.798,10.423 -5.804,16.599 2.958,6.208 10.351,8.868 16.598,5.842 29.943,-14.382 59.405,-30.683 87.536,-48.466 5.804,-3.657 7.542,-11.347 3.882,-17.152 -2.366,-3.772 -6.432,-5.806 -10.535,-5.806 z m -1048.444,-105.536 c -3.253,0 -6.543,1.294 -8.983,3.845 -4.769,4.987 -4.583,12.864 0.407,17.595 5.028,4.805 10.129,9.573 15.304,14.267 19.408,17.747 39.887,34.826 60.81,50.679 5.472,4.179 13.271,3.145 17.449,-2.363 4.14,-5.468 3.105,-13.271 -2.403,-17.449 -20.295,-15.415 -40.22,-32.009 -59.073,-49.239 -5.027,-4.585 -10.018,-9.239 -14.897,-13.897 -2.44,-2.291 -5.508,-3.438 -8.613,-3.438 z m 1243.257,-63.84 c -3.512,0 -6.987,1.477 -9.463,4.361 -6.359,7.465 -12.865,14.857 -19.519,22.176 -15.193,16.636 -31.199,32.828 -47.613,48.206 -5.027,4.695 -5.286,12.567 -0.591,17.595 4.695,5.029 12.569,5.289 17.596,0.595 16.894,-15.827 33.381,-32.535 48.981,-49.651 6.875,-7.501 13.566,-15.081 20.109,-22.77 4.436,-5.248 3.808,-13.083 -1.404,-17.559 -2.366,-1.993 -5.212,-2.953 -8.096,-2.953 z m 135.815,-219.547 c -4.843,0 -9.464,2.811 -11.46,7.579 -12.642,29.723 -27.133,59.035 -43.14,87.131 -3.401,5.952 -1.33,13.568 4.658,16.965 5.952,3.401 13.53,1.294 16.968,-4.658 16.487,-28.905 31.421,-59.109 44.434,-89.715 2.661,-6.322 -0.261,-13.641 -6.617,-16.342 -1.59,-0.663 -3.216,-0.96 -4.843,-0.96"
         style="fill:#91b3fa;fill-opacity:1;fill-rule:nonzero;stroke:none;stroke-width:0.369664"
         id="path164" />
      <path
         d="m 15715.634,29278.489 c -6.026,0 -11.312,4.397 -12.273,10.537 -2.514,16.077 -5.545,32.306 -8.946,48.205 -1.442,6.725 2.81,13.344 9.537,14.784 6.839,1.44 13.345,-2.848 14.787,-9.536 3.511,-16.379 6.617,-33.088 9.204,-49.613 1.072,-6.798 -3.585,-13.157 -10.387,-14.227 -0.628,-0.09 -1.294,-0.137 -1.922,-0.137"
         style="fill:#91b3fa;fill-opacity:1;fill-rule:nonzero;stroke:none;stroke-width:0.369664"
         id="path166" />
      <path
         d="m 15527.363,29177.57 c 0.334,4.361 -2.144,8.466 -6.173,10.24 l -114.596,49.755 c -8.835,57.705 -26.949,114.377 -54.563,167.717 l 63.25,107.648 c 2.218,3.771 1.774,8.539 -1.035,11.867 l -97.444,113.893 c -2.846,3.328 -7.504,4.512 -11.57,2.884 l -116.149,-45.801 c -48.426,35.525 -101.621,62.213 -157.218,79.881 l -31.422,120.919 c -1.109,4.252 -4.769,7.319 -9.168,7.653 l -149.418,11.643 c -4.362,0.366 -8.466,-2.107 -10.203,-6.135 l -49.794,-114.596 c -57.668,-8.873 -114.337,-26.985 -167.68,-54.565 l -107.683,63.25 c -3.771,2.222 -8.54,1.774 -11.867,-1.069 l -113.893,-97.408 c -3.327,-2.848 -4.473,-7.502 -2.846,-11.571 l 45.801,-116.182 c -35.525,-48.394 -62.215,-101.587 -79.885,-157.221 l -120.954,-31.419 c -4.214,-1.111 -7.282,-4.773 -7.652,-9.134 l -11.645,-149.417 c -0.333,-4.361 2.144,-8.467 6.174,-10.204 l 114.596,-49.796 c 8.835,-57.664 26.948,-114.373 54.563,-167.68 l -63.25,-107.68 c -2.218,-3.772 -1.774,-8.54 1.035,-11.868 l 97.443,-113.892 c 2.847,-3.328 7.505,-4.476 11.571,-2.885 l 116.149,45.801 c 48.426,-35.524 101.62,-62.176 157.218,-79.885 l 31.422,-120.915 c 1.109,-4.251 4.768,-7.319 9.167,-7.652 l 149.419,-11.648 c 4.362,-0.32 8.466,2.144 10.203,6.139 l 49.794,114.597 c 57.667,8.868 114.337,26.985 167.68,54.596 l 107.683,-63.245 c 3.77,-2.218 8.539,-1.815 11.866,1.033 l 113.857,97.444 c 3.364,2.844 4.51,7.465 2.883,11.534 l -45.801,116.187 c 35.525,48.426 62.215,101.582 79.885,157.216 l 120.954,31.424 c 4.214,1.107 7.282,4.768 7.652,9.13 l 11.644,149.417"
         style="fill:#91b3fa;fill-opacity:1;fill-rule:nonzero;stroke:none;stroke-width:0.369664"
         id="path168" />
      <path
         d="m 14865.146,29002.201 c -31.126,0 -61.439,9.572 -87.352,27.908 -68.277,48.352 -84.542,143.246 -36.19,211.525 23.399,33.12 58.296,55.076 98.257,61.915 8.65,1.481 17.337,2.222 25.913,2.222 31.126,0 61.438,-9.577 87.352,-27.913 33.085,-23.433 55.08,-58.295 61.919,-98.254 6.839,-39.963 -2.292,-80.183 -25.729,-113.266 -23.4,-33.12 -58.296,-55.081 -98.257,-61.92 -8.65,-1.477 -17.3,-2.217 -25.913,-2.217 m 0.48,266.157 c -35.931,0 -71.271,-16.781 -93.562,-48.274 -36.412,-51.497 -24.176,-123.026 27.318,-159.474 19.519,-13.829 42.401,-21.07 65.838,-21.07 6.506,0 13.012,0.553 19.518,1.659 30.127,5.175 56.448,21.738 74.118,46.693 17.633,24.951 24.509,55.301 19.37,85.39 -5.138,30.13 -21.736,56.448 -46.652,74.08 -20.035,14.194 -43.103,20.996 -65.948,20.996"
         style="fill:#dee8fd;fill-opacity:1;fill-rule:nonzero;stroke:none;stroke-width:0.369664"
         id="path170" />
      <path
         d="m 14862.89,28773.638 c -10.017,0 -20.072,0.366 -30.164,1.18 -101.288,7.876 -193.409,54.747 -259.431,131.936 -61.216,71.529 -91.159,159.474 -91.159,246.971 0,107.388 45.099,214.149 132.931,289.266 71.53,61.175 159.437,91.155 246.937,91.155 107.387,0 214.146,-45.134 289.262,-132.965 1.072,-1.22 2.144,-2.478 3.179,-3.735 14.787,-17.741 27.947,-36.781 39.222,-56.745 l 0.109,-0.228 0.518,-0.887 c 0.297,-0.521 0.554,-1.038 0.85,-1.555 l 0.481,-0.85 c 0.518,-0.923 0.998,-1.81 1.478,-2.734 l -32.826,-17.746 c -11.57,21.367 -25.469,41.591 -41.365,60.22 -67.76,79.181 -164.058,119.885 -260.91,119.885 -27.576,0 -55.191,-3.328 -82.213,-9.984 -50.312,-12.347 -98.516,-36.338 -140.473,-72.233 -79.182,-67.721 -119.845,-164.018 -119.882,-260.836 0,-78.922 27.023,-158.213 82.213,-222.72 67.723,-79.182 164.021,-119.882 260.873,-119.882 78.923,0 158.179,26.981 222.723,82.176 47.206,40.439 82.546,92.782 102.175,151.415 l 35.451,-11.867 c -21.81,-65.024 -60.994,-123.1 -113.376,-167.904 -69.497,-59.442 -156.109,-91.342 -246.603,-91.342"
         style="fill:#dee8fd;fill-opacity:1;fill-rule:nonzero;stroke:none;stroke-width:0.369664"
         id="path172" />
      <g
         id="g174"
         transform="matrix(0.36966488,0,0,0.36966488,5448.2281,19584.029)">
        <g
           id="g176"
           clip-path="url(#clipPath180)">
          <path
             d="m 24425.6,9521.4 c -52.4,0 -104.6,10.3 -153.5,30.6 -20,8.3 -39.3,18.2 -58,29.8 -109.5,68.2 -216.4,136.6 -321.5,205.6 -667.2,438.1 -1246.7,892.2 -1749.1,1357.1 -52.5,48.6 -104,97.2 -154.9,146 -1040.8,999.4 -1736.9,2047.9 -2204.6,3104.3 -11.6,26.2 -23.1,52.6 -34.4,78.8 -22.5,52.1 -44.5,104.3 -66,156.5 -47.2,114.9 -91.7,229.6 -133.9,344.6 -770.1,2099.8 -722.7,4199.5 -763.5,5971.8 -2.6,113.7 43.2,223.1 126.2,300.9 74.2,69.5 171.8,107.8 272.7,107.8 11.9,0 23.8,-0.6 35.8,-1.6 94,-8.5 194.5,-12.8 300.3,-12.8 929.7,0 2280.8,330.4 3472.9,1066 420.6,259.6 821.4,569.6 1176.9,933.3 38.8,39.8 89.8,55.9 144.5,55.9 89.8,0 189.6,-43.5 262.7,-98.1 481,-359.6 1054.6,-635.6 1649.1,-847.6 1436.4,-512.1 2994.9,-650.2 3663.6,-686.9 195.6,-10.8 354.3,-162.5 374.5,-357.4 259.1,-2502.2 -50.5,-4523.2 -640.6,-6141.1 -135,-370.1 -284.5,-719 -445.4,-1047.8 -1470.1,-3004.7 -3876.8,-4322.8 -4583.2,-4657.4 -54.1,-25.6 -112.4,-38.3 -170.6,-38.3 m -4905.5,11225.3 c -36.2,0 -70,-14.1 -95.1,-39.8 -25,-25.4 -38.4,-59.1 -37.8,-94.8 l 3.9,-213.8 c 28.2,-1604.1 60.1,-3422.2 712.3,-5207.7 730.2,-1999.1 2126.9,-3636.8 4269.9,-5006.7 21.7,-13.9 46.7,-20.9 71.7,-20.9 20.7,0 41.4,4.8 60.3,14.5 558.4,287.1 1987.3,1129.1 3192.3,2745.2 1613.4,2163.9 2287.5,4904.2 2003.4,8144.9 -5.7,65.1 -57,115.7 -122.1,120.6 -1222,90 -3511.9,400.2 -5117.1,1465.3 -22.4,14.8 -47.9,22.1 -73.3,22.1 -31.8,0 -63.4,-11.4 -88.3,-33.8 -1461,-1309.1 -3453,-1895.1 -4780.1,-1895.1 v 0 m 4924.8,-10529.3 c -14.7,0 -29.5,4.2 -42.3,12.3 -2132.5,1363.3 -3522.1,2992.1 -4248.1,4979.6 -649.1,1776.9 -681,3590.1 -709,5190 l -3.9,213.8 c -0.4,21 7.5,40.8 22.2,55.7 14.9,15.1 34.9,23.5 57.4,23.5 v 0 c 1336.4,0 3343.6,590.3 4815.3,1909 14.7,13.2 33.3,19.9 52,19.9 15,0 30,-4.3 43.2,-13 1615.6,-1072 3915.9,-1383.8 5143.3,-1474.3 38.2,-2.8 68.4,-32.7 71.8,-71.1 282.8,-3226.9 -387.6,-5954.7 -1992.8,-8107.6 -1198.2,-1607 -2618.5,-2444 -3173.6,-2729.3 v 0 c -11.1,-5.7 -23.3,-8.5 -35.5,-8.5 m -2005.6,7690.9 c -261.8,0 -474.1,-212.3 -474.1,-474.1 v -3279.3 c 0,-261.8 212.3,-474.1 474.1,-474.1 h 4272.9 c 261.8,0 474.1,212.3 474.1,474.1 v 3279.3 c 0,261.8 -212.3,474.1 -474.1,474.1 h -4272.9 m 1353.3,1855.1 h 1566.3 c 309.2,0 559.9,-250.7 559.9,-560 v -863.9 c 0,-125.6 101.8,-227.3 227.3,-227.3 h 252.8 c 125.5,0 227.2,101.7 227.2,227.3 v 863.9 c 0,699.9 -567.3,1267.3 -1267.2,1267.3 h -1566.3 c -699.9,0 -1267.3,-567.4 -1267.3,-1267.3 v -863.9 c 0,-125.6 101.8,-227.3 227.3,-227.3 h 252.8 c 125.5,0 227.2,101.7 227.2,227.3 v 863.9 c 0,309.3 250.7,560 560,560 m 1223.7,-5241.3 h -881.1 c -113.6,0 -197.3,106.3 -170.8,216.7 l 205.6,855.9 c -242.7,145.1 -401.4,416.3 -385.2,723.1 21,397.5 343.1,722.9 740.4,747.6 16.9,1 33.8,1.5 50.5,1.5 437.5,0 792.1,-354.5 792.1,-792 0,-289.1 -155,-541.9 -386.3,-680.2 l 205.6,-855.9 c 26.5,-110.4 -57.2,-216.7 -170.8,-216.7"
             style="fill:url(#linearGradient186);fill-opacity:1;fill-rule:nonzero;stroke:none"
             id="path188" />
        </g>
      </g>
      <g
         id="g190"
         transform="matrix(0.36966488,0,0,0.36966488,5448.2281,19584.029)">
        <g
           id="g192"
           clip-path="url(#clipPath196)">
          <path
             d="m 24445,10163 c -25,0 -50,7 -71.7,20.9 -2143,1369.9 -3539.7,3007.6 -4269.9,5006.7 -652.2,1785.5 -684.1,3603.6 -712.3,5207.7 l -3.9,213.8 c -0.6,35.7 12.8,69.4 37.8,94.8 25.1,25.7 58.9,39.8 95.1,39.8 v 0 c 1327.1,0 3319.1,586 4780.1,1895.1 24.9,22.4 56.5,33.8 88.3,33.8 25.4,0 50.9,-7.3 73.3,-22.1 1605.2,-1065.1 3895.1,-1375.3 5117.1,-1465.3 65.1,-4.9 116.4,-55.5 122.1,-120.6 284.1,-3240.7 -390,-5981 -2003.4,-8144.9 -1205,-1616.1 -2633.9,-2458.1 -3192.3,-2745.2 -18.9,-9.7 -39.6,-14.5 -60.3,-14.5 m -4923.8,10529.3 c -22.5,0 -42.5,-8.4 -57.4,-23.5 -14.7,-14.9 -22.6,-34.7 -22.2,-55.7 l 3.9,-213.8 c 28,-1599.9 59.9,-3413.1 709,-5190 726,-1987.5 2115.6,-3616.3 4248.1,-4979.6 12.8,-8.1 27.6,-12.3 42.3,-12.3 12.2,0 24.4,2.8 35.5,8.5 v 0 c 555.1,285.3 1975.4,1122.3 3173.6,2729.3 1605.2,2152.9 2275.6,4880.7 1992.8,8107.6 -3.4,38.4 -33.6,68.3 -71.8,71.1 -1227.4,90.5 -3527.7,402.3 -5143.3,1474.3 -13.2,8.7 -28.2,13 -43.2,13 -18.7,0 -37.3,-6.7 -52,-19.9 -1471.7,-1318.7 -3478.9,-1909 -4815.3,-1909 v 0"
             style="fill:url(#linearGradient202);fill-opacity:1;fill-rule:nonzero;stroke:none"
             id="path204" />
        </g>
      </g>
      <g
         id="g206"
         transform="matrix(0.36966488,0,0,0.36966488,5448.2281,19584.029)">
        <g
           id="g208"
           clip-path="url(#clipPath212)">
          <path
             d="m 26398.9,18112.2 h -252.8 c -125.5,0 -227.3,101.7 -227.3,227.3 v 863.9 c 0,309.3 -250.7,560 -559.9,560 h -1566.3 c -309.3,0 -560,-250.7 -560,-560 v -863.9 c 0,-125.6 -101.7,-227.3 -227.2,-227.3 h -252.8 c -125.5,0 -227.3,101.7 -227.3,227.3 v 863.9 c 0,699.9 567.4,1267.3 1267.3,1267.3 h 1566.3 c 699.9,0 1267.2,-567.4 1267.2,-1267.3 v -863.9 c 0,-125.6 -101.7,-227.3 -227.2,-227.3"
             style="fill:url(#linearGradient218);fill-opacity:1;fill-rule:nonzero;stroke:none"
             id="path220" />
        </g>
      </g>
      <g
         id="g222"
         transform="matrix(0.36966488,0,0,0.36966488,5448.2281,19584.029)">
        <g
           id="g224"
           clip-path="url(#clipPath228)">
          <path
             d="m 26712.2,13680.8 h -4272.9 c -261.8,0 -474.1,212.3 -474.1,474.1 v 3279.3 c 0,261.8 212.3,474.1 474.1,474.1 h 4272.9 c 261.8,0 474.1,-212.3 474.1,-474.1 v -3279.3 c 0,-261.8 -212.3,-474.1 -474.1,-474.1 m -2136.5,3386.1 c -16.7,0 -33.6,-0.5 -50.5,-1.5 -397.3,-24.7 -719.4,-350.1 -740.4,-747.6 -16.2,-306.8 142.5,-578 385.2,-723.1 l -205.6,-855.9 c -26.5,-110.4 57.2,-216.7 170.8,-216.7 h 881.1 c 113.6,0 197.3,106.3 170.8,216.7 l -205.6,855.9 c 231.3,138.3 386.3,391.1 386.3,680.2 0,437.5 -354.6,792 -792.1,792"
             style="fill:url(#linearGradient234);fill-opacity:1;fill-rule:nonzero;stroke:none"
             id="path236" />
        </g>
      </g>
      <g
         id="g238"
         transform="matrix(0.36966488,0,0,0.36966488,5448.2281,19584.029)">
        <g
           id="g240"
           clip-path="url(#clipPath244)">
          <path
             d="m 8196.96,18980.3 c 0,0 346.07,-18.3 388.5,-730.3 0,0 -802.48,-719.4 -1886.46,-890.6 -81.39,-12.9 113.77,555.5 143.1,632.5 139.59,366.3 579.2,602.2 1354.86,988.4"
             style="fill:url(#linearGradient250);fill-opacity:1;fill-rule:nonzero;stroke:none"
             id="path252" />
        </g>
      </g>
      <path
         d="m 9919.1033,26909.821 h -269.9662 c 0,0 -828.5779,915.109 -1372.0298,1007.452 0,0 -378.293,-482.894 20.1504,-1385.175 32.0498,-72.563 121.6974,-104.8 188.566,-62.099 19.999,12.787 34.3606,29.902 43.0843,51.342 l -32.0389,770.386 c 0,0 706.7845,-618.157 829.6613,-737.449 122.8398,-119.287 747.3146,-46.574 592.5729,355.543"
         style="fill:#7d97f4;fill-opacity:1;fill-rule:nonzero;stroke:none;stroke-width:0.369664"
         id="path254" />
      <g
         id="g256"
         transform="matrix(0.36966488,0,0,0.36966488,5448.2281,19584.029)">
        <g
           id="g258"
           clip-path="url(#clipPath262)">
          <path
             d="m 5034.03,14620 c 306.03,268.2 793.65,569.1 1497.57,655.4 l 238.06,-145.6 c 0,0 -151.8,-224 -429.12,-460.5 -254.88,-148 -648.45,-348.5 -974.73,-392 -317.23,-42.2 -364.01,149.5 -331.78,342.7"
             style="fill:url(#linearGradient268);fill-opacity:1;fill-rule:nonzero;stroke:none"
             id="path270" />
        </g>
      </g>
      <path
         d="m 7977.5123,26235 c 69.6928,-22.55 100.3456,-121.321 277.1968,-56.004 171.0958,63.177 298.2899,144.649 363.728,191.634 1.4602,-12.754 2.6876,-26.062 3.5342,-40.219 0,0 -312.7808,-297.509 -713.4976,-360.828 -30.0837,-4.731 -53.9232,25.285 -43.077,53.747 19.4592,51.09 54.5403,128.534 112.1156,211.67"
         style="fill:#91b3fa;fill-opacity:1;fill-rule:nonzero;stroke:none;stroke-width:0.369664"
         id="path272" />
      <path
         d="m 7223.9095,24903.874 c 22.3018,25.362 50.7662,54.45 85.2229,84.653 -11.9145,-71.419 5.3783,-142.285 122.6473,-126.683 120.614,16.078 266.1034,90.194 360.3232,144.91 -118.0896,-100.7 -297.765,-207.603 -524.5431,-201.322 -50.3744,1.404 -76.9385,60.622 -43.6503,98.442"
         style="fill:#91b3fa;fill-opacity:1;fill-rule:nonzero;stroke:none;stroke-width:0.369664"
         id="path274" />
      <path
         d="M 9909.2331,26714.493 8645.02,26700.815 c 0,0 -721.9667,-597.303 -852.9171,-1508.123 0,0 -21.7362,-67.022 108.7667,-78.478 0,0 436.4891,285.084 721.1017,789.12 348.9783,618.007 1040.3626,339.836 1040.3626,339.836 332.144,-73.308 596.4911,-46.026 789.9741,251.67 l -543.0749,219.653"
         style="fill:#7d97f4;fill-opacity:1;fill-rule:nonzero;stroke:none;stroke-width:0.369664"
         id="path276" />
      <g
         id="g278"
         transform="matrix(0.36966488,0,0,0.36966488,5448.2281,19584.029)">
        <g
           id="g280"
           clip-path="url(#clipPath284)">
          <path
             d="m 11987,22044 c 0,0 -368.2,-1845.1 -2172.09,-2575 l -641.65,75.6 -151.41,-241.4 1505.15,-48 c 0,0 1286.5,509.6 1968.2,1898.1 22.5,45.9 397.9,821 -508.2,890.7"
             style="fill:url(#linearGradient290);fill-opacity:1;fill-rule:nonzero;stroke:none"
             id="path292" />
        </g>
      </g>
      <g
         id="g294"
         transform="matrix(0.36966488,0,0,0.36966488,5448.2281,19584.029)">
        <g
           id="g296"
           clip-path="url(#clipPath300)">
          <path
             d="m 11789.7,19319.2 c 0,0 418.6,1138 508.6,2243.8 0,0 -306.3,263.2 -497.7,376.8 -62,36.8 -85.4,114.6 -54.1,179.5 140.8,291.6 991.9,1436.4 1055.7,1452.3 346.5,86.5 1767.8,762.3 2768.8,-606.9 429.6,-587.6 -85.2,-2396.5 -2034.2,-4269.9 -627.1,-102.1 -1213.5,78.6 -1747.1,624.4"
             style="fill:url(#linearGradient306);fill-opacity:1;fill-rule:nonzero;stroke:none"
             id="path308" />
        </g>
      </g>
      <g
         id="g310"
         transform="matrix(0.36966488,0,0,0.36966488,5448.2281,19584.029)">
        <g
           id="g312"
           clip-path="url(#clipPath316)">
          <path
             d="m 13402.9,21313.7 c 0,0 -1163.2,-1377.3 -2650.3,-1578.6 0,0 -384.3,350.3 -670.1,225.3 -285.82,-125.1 -677.69,-677.3 -677.69,-677.3 h 1909.49 c 0,0 1805.4,63.6 2707.6,1158.4 -72.6,383.1 -290,612 -619,872.2"
             style="fill:url(#linearGradient322);fill-opacity:1;fill-rule:nonzero;stroke:none"
             id="path324" />
        </g>
      </g>
      <g
         id="g326"
         transform="matrix(0.36966488,0,0,0.36966488,5448.2281,19584.029)">
        <g
           id="g328"
           clip-path="url(#clipPath332)">
          <path
             d="m 14081.4,24537.6 254.5,-848.8 c 11.7,-38.9 -2.7,-81 -36.2,-103.9 -122.5,-84 -442.8,-250.9 -882.1,-88.7 -50.2,18.6 -84.7,65.5 -89,118.9 l -60.4,739.5 813.2,183"
             style="fill:url(#linearGradient338);fill-opacity:1;fill-rule:nonzero;stroke:none"
             id="path340" />
        </g>
      </g>
      <g
         id="g342"
         transform="matrix(0.36966488,0,0,0.36966488,5448.2281,19584.029)">
        <g
           id="g344"
           clip-path="url(#clipPath348)">
          <path
             d="m 12591.2,25225.1 c 0,0 125.1,-879.9 463.1,-1150.5 338,-270.6 996.6,-66.9 1219,596.5 l -443.2,1134.2 -1238.9,-580.2"
             style="fill:url(#linearGradient354);fill-opacity:1;fill-rule:nonzero;stroke:none"
             id="path356" />
        </g>
      </g>
      <g
         id="g358"
         transform="matrix(0.36966488,0,0,0.36966488,5448.2281,19584.029)">
        <g
           id="g360"
           clip-path="url(#clipPath364)">
          <path
             d="m 13880,25071.3 c -25.7,-8.3 -52.6,8.2 -56.6,34.9 -12.2,81.2 -42.7,242 -104.3,351.5 0,0 32.2,115.4 -291.8,-59 -324,-174.4 -810.6,-430.5 -1097.2,-278 -279.3,148.7 -562.3,897.2 176,758.6 28.1,-5.3 53.9,17.1 51.8,45.6 -9.1,123 3.1,406 289.8,496.9 268.2,85 415,-36.1 475.5,-109.2 17.8,-21.5 50.8,-21 67.8,1.1 80.4,104.9 298.5,328.2 619.8,186.6 264.5,-116.6 305.7,-279.6 301.3,-381.1 -1.4,-32.9 32,-55.2 61.9,-41.4 81,37.3 211.3,56.7 336.2,-99.7 172.6,-216.3 -74.1,-403.8 -148.1,-453 -12.1,-8.1 -19.6,-21.4 -19.7,-36 -0.7,-112.4 -18.2,-603 -264.1,-879.7 -21.3,-24 -60.6,-16.9 -73,12.6 l -189.3,451.1 c -8.8,20.9 -32.2,31.7 -53.8,24.7 l -82.2,-26.5"
             style="fill:url(#linearGradient370);fill-opacity:1;fill-rule:nonzero;stroke:none"
             id="path372" />
        </g>
      </g>
      <g
         id="g374"
         transform="matrix(0.36966488,0,0,0.36966488,5448.2281,19584.029)">
        <g
           id="g376"
           clip-path="url(#clipPath380)">
          <path
             d="m 13876,24979.7 c 0,0 115.6,470.9 291.2,318 175.7,-152.9 -45.7,-489.3 -246.9,-553.5 l -44.3,235.5"
             style="fill:url(#linearGradient386);fill-opacity:1;fill-rule:nonzero;stroke:none"
             id="path388" />
        </g>
      </g>
      <g
         id="g390"
         transform="matrix(0.36966488,0,0,0.36966488,5448.2281,19584.029)">
        <g
           id="g392"
           clip-path="url(#clipPath396)">
          <path
             d="m 9500.94,19176.2 -857.34,2859.2 c -34.97,116.6 -138.6,199.4 -260.08,207.7 l -1157.53,79.2 c -117.66,8 -205.17,-106.9 -166.11,-218.2 l 958.43,-2730.5 c 30.88,-87.9 109.85,-150.1 202.6,-159.5 l 1139.87,-126.5 140.16,88.6"
             style="fill:url(#linearGradient402);fill-opacity:1;fill-rule:nonzero;stroke:none"
             id="path404" />
        </g>
      </g>
      <path
         d="m 8375.889,27371.499 c 23.6622,-47.762 64.5253,-75.744 91.2704,-62.473 26.7415,13.234 29.2403,62.692 5.5781,110.455 -23.6622,47.757 -64.5212,75.744 -91.2663,62.509 -26.7419,-13.271 -29.2443,-62.729 -5.5822,-110.491"
         style="fill:#91b3fa;fill-opacity:1;fill-rule:nonzero;stroke:none;stroke-width:0.369664"
         id="path406" />
      <g
         id="g408"
         transform="matrix(0.36966488,0,0,0.36966488,5448.2281,19584.029)">
        <g
           id="g410"
           clip-path="url(#clipPath414)">
          <path
             d="m 9360.78,19087.6 c 1.85,0 3.71,0 5.59,0.1 l 2428.83,122.8 c 60,3 106.2,54.1 103.2,114.2 -3.1,60 -54.4,107.2 -114.2,103.2 l -2428.83,-122.8 c -60.04,-3 -106.25,-54.1 -103.22,-114.2 2.95,-58.1 51.03,-103.3 108.63,-103.3"
             style="fill:url(#linearGradient420);fill-opacity:1;fill-rule:nonzero;stroke:none"
             id="path422" />
        </g>
      </g>
      <g
         id="g424"
         transform="matrix(0.36966488,0,0,0.36966488,5448.2281,19584.029)">
        <g
           id="g426"
           clip-path="url(#clipPath430)">
          <path
             d="m 12298.3,21546.2 c -9.3,0 -16.8,7.5 -16.8,16.8 -1.7,512.7 195.6,1191.2 197.6,1198 2.6,8.9 11.9,14 20.8,11.4 9,-2.6 14.1,-11.9 11.5,-20.8 -2,-6.8 -197.9,-680.8 -196.3,-1188.5 0.1,-9.3 -7.5,-16.9 -16.8,-16.9 v 0"
             style="fill:url(#linearGradient436);fill-opacity:1;fill-rule:nonzero;stroke:none"
             id="path438" />
        </g>
      </g>
      <g
         id="g440"
         transform="matrix(0.36966488,0,0,0.36966488,5448.2281,19584.029)">
        <g
           id="g442"
           clip-path="url(#clipPath446)">
          <path
             d="m 13402.9,21296.8 c -3.7,0 -7.4,1.2 -10.5,3.6 -7.2,5.8 -8.5,16.4 -2.7,23.7 5.3,6.7 533.2,677.8 713.9,1135.7 3.4,8.7 13.1,13.1 21.8,9.5 8.7,-3.4 12.9,-13.2 9.5,-21.9 -182.5,-462.4 -713.5,-1137.4 -718.8,-1144.2 -3.3,-4.2 -8.3,-6.4 -13.2,-6.4"
             style="fill:url(#linearGradient452);fill-opacity:1;fill-rule:nonzero;stroke:none"
             id="path454" />
        </g>
      </g>
      <g
         id="g456"
         transform="matrix(0.36966488,0,0,0.36966488,5448.2281,19584.029)">
        <g
           id="g458"
           clip-path="url(#clipPath462)">
          <path
             d="m 14151.2,20264.9 -96,135.8 c -5.4,7.6 -3.6,18.1 4,23.5 7.6,5.4 18.1,3.6 23.5,-4 l 80.3,-113.6 c 749.1,328.4 1212.8,1224.6 1217.5,1233.7 4.2,8.2 14.3,11.6 22.6,7.3 8.3,-4.2 11.6,-14.4 7.3,-22.6 -4.7,-9.3 -478.9,-926 -1246.7,-1254.7 l -12.5,-5.4"
             style="fill:url(#linearGradient468);fill-opacity:1;fill-rule:nonzero;stroke:none"
             id="path470" />
        </g>
      </g>
    </g>
  </g>
</svg>
